<?xml version="1.0" encoding="UTF-8"?>
<!DOCTYPE svg PUBLIC "-//W3C//DTD SVG 1.1//EN" "http://www.w3.org/Graphics/SVG/1.1/DTD/svg11.dtd">
<svg xmlns="http://www.w3.org/2000/svg"
xmlns:svg="http://www.w3.org/2000/svg"
xmlns:xlink="http://www.w3.org/1999/xlink"
xml:space="preserve"
version="1.1"
x="0px" y="0px" width="682px" height="664px"
viewBox="674 -39 682 664">
<style id="style_css_sheet" type="text/css">
text[systemLanguage="ar" i] { direction:rtl;font-family:AlNile; }
text[systemLanguage="arz" i] { direction:rtl;font-family:AlNile; }
text[systemLanguage="ar,arz" i] { direction:rtl;font-family:AlNile; }
text[systemLanguage="fa" i] { direction:rtl;font-family:AlNile; }
text[systemLanguage="he" i] { direction:rtl;font-family:AlNile; }
text[systemLanguage="ru" i] { font-family:DejaVuSans-Oblique; }
text[systemLanguage="uk" i] { font-family:DejaVuSans-Oblique; }
text[systemLanguage="ja" i] { font-family:AlNile; }
text[systemLanguage="ko" i] { font-family:AlNile; }
text[systemLanguage="zh" i] { font-family:Noto Sans CJK SC; }
text[systemLanguage="zh-cn" i] { font-family:Noto Sans CJK SC; }
text[systemLanguage="zh,zh-cn" i] { font-family:Noto Sans CJK SC; }
</style>
<rect id="rect-background" x="674" y="-39" width="682" height="664" style="fill:white;stroke:none"/>
<g id="multi-1"
	style="fill:#cccccc;stroke:#ffffff;stroke-width:1.5px">
	<path id="af" d="M 1193.278,88.027 c -0.598,-2.07 0.794,-3.656 2.418,-4.697 2.539,-1.61 1.175,-2.717 -0.189,-4.627 4.284,-0.487 4.113,-5.955 4.395,-9.138 0.147,-1.632 -1.694,-3.521 -0.752,-5.101 0.824,-1.38 0.844,-3.511 1.115,-5.058 0.558,-3.405 5.205,1.165 6.727,1.943 2.292,1.169 4.013,-0.338 6.323,0.295 2.491,0.689 4.411,3.101 5.185,5.482 1.604,-3.387 5.829,-1.521 8.307,-3.748 1.321,-1.195 2.781,-1.8 3.6,-3.487 0.76,-1.57 -0.832,-2.231 1.275,-3.377 -1.123,-0.793 -2.091,-1.901 -2.569,-3.214 6.933,0.891 14.325,-3.817 19.702,-7.622 5.292,-3.745 -1.393,-15.566 5.128,-18.238 2.353,-0.971 6.521,0.419 8.47,-0.82 2.059,-1.312 -0.379,-5.171 2.598,-5.648 2.254,-0.366 4.767,1.961 6.586,2.962 2.728,1.5 5.118,0.683 8.066,0.3 3.413,-0.447 6.474,-0.534 8.975,2.084 2.515,2.642 5.468,-0.171 8.482,0.663 1.223,0.335 3.482,3.272 4.567,4.252 2.377,2.142 2.623,-0.472 5.077,0.052 -0.415,-2.766 4.263,-2.897 5.622,-4.411 1.421,-1.557 1.2,0.302 2.56,-0.249 0.678,-0.27 0.604,-1.79 1.51,-1.649 2.418,0.375 3.243,4.922 6.227,4.235 3.594,-0.825 -0.344,-5.358 1.123,-7.473 3.099,-4.462 9.825,0.852 11.775,-1.277 2.399,-2.613 -1.257,-3.569 -1.66,-5.406 -0.469,-2.136 2.555,-4.652 3.331,-6.781 2.151,-5.863 9.794,-6.377 13.078,-0.586 0.767,1.351 -0.363,5.668 1.125,6.15 1.512,0.497 3.682,-1.525 4.634,0.656 0.979,2.292 0.398,7.209 0.516,9.708 0.124,2.812 0.581,5.7 1.607,8.327 3.188,8.145 8.022,3.663 12.621,-0.199 1.892,-1.584 5.721,0.192 6.743,-2.25 1.388,-3.271 3.403,-5.287 6.715,-6.942 2.458,-1.228 11.81,-0.978 7.805,3.487 2.782,1.17 7.408,-1.952 9.899,-3.201 2.089,-1.041 8.859,0.881 10.034,3.358 -1.878,0.851 -3.727,-0.757 -5.62,0.159 -2.246,1.088 -0.76,3.021 1.577,3.783 -2.022,0.687 -4.667,1.617 -6.218,3.049 -2.64,2.452 -4.568,-1.157 -7.17,-0.578 -5.529,1.226 -11.208,0.578 -16.312,1.415 -2.431,0.392 -4.5,1.786 -6.891,2.452 -2.693,0.747 -3.236,4.239 -4.971,5.153 -1.898,0.999 -2.511,-1.144 -4.535,1.697 -0.973,1.38 -2.946,3.358 -3.41,4.892 -0.521,1.727 2.02,2.88 3.094,3.693 2.386,2.923 4.942,5.541 6.183,9.896 -2.288,2.759 1.179,2.59 1.122,4.271 -1.406,1.092 -1.137,2.2 -1.746,3.769 -1.204,3.063 -3.822,3.771 -4.678,5.337 -0.44,0.809 -0.576,1.591 -0.248,2.451 -0.474,0.025 -1.979,0.112 -1.597,1.057 0.542,1.336 2.208,2.164 3.171,3.157 3.38,3.469 -1.907,7.13 -4.415,7.681 -2.452,0.532 -5.32,0.068 -7.749,-0.427 -1.209,-0.241 -4.631,-1.507 -5.789,-0.347 -2.486,2.491 5.016,4.758 5.729,7.818 0.363,1.563 2.948,4.187 2.18,5.724 -0.762,1.512 -4.279,3.668 -6.221,3.645 -6.806,-0.084 -4.875,2.022 -4.579,4.702 0.248,2.193 -0.028,4.79 -1.547,6.534 -1.65,1.884 0.075,4.388 0.614,6.44 0.984,3.837 0.412,8.623 -3.516,10.678 -2.33,1.215 -3.291,-0.039 -4.43,-1.877 -0.483,-0.757 -2.555,-1.428 -3.502,-1.596 -0.6,-0.108 0.45,0.328 -0.497,1.465 -8.935,-3.279 -3.665,3.044 -13.842,4.338 0.521,1.997 2.779,2.072 4.021,3.377 -2.451,1.304 -5.177,2.145 -7.992,2.426 -2.728,0.274 -3.825,-1.641 -5.273,-1.708 -2.602,-0.127 -3.867,4.758 -5.774,6.099 -2.27,1.596 -2.775,1.532 -2.956,4.992 -0.181,3.196 1.123,5.69 1.39,8.781 -0.276,1.224 -0.295,2.051 -0.524,3.277 0.154,1.176 1.195,1.844 1.61,2.798 1.525,3.445 -11.773,5.724 -13.451,6.124 -2.836,0.678 -4.94,1.943 -7.912,1.821 -2.979,-0.122 -6.596,-1.237 -9.363,0.246 -2.693,1.441 -4.395,2.951 -7.523,2.079 -2.926,-0.811 -6.279,-1.734 -9.289,-1.319 -6.68,0.921 -14.339,2.325 -21.016,0.358 -7.836,-2.304 -12.889,-5.568 -20.895,-7.364 3.402,-3.919 5.833,-8.54 8.766,-12.802 2.517,-3.67 5.024,-7.683 3.496,-12.318 -2.779,-8.468 -15.822,-1.776 -17.883,-11.046 -1.293,-5.876 -1.525,-10.976 -4.197,-16.515 -2.307,-4.771 -5.374,-9.396 -2.079,-14.341 2.663,-3.989 2.051,-3.539 -2.081,-4.669 -3.781,-1.045 -4.386,-7.371 -4.013,-9.482" />
	<path id="am" d="M 899.962,-48.781 c 1.719,-0.11 6.603,1.184 9.479,0.035 4.104,-1.636 9.012,-0.857 13.331,-0.809 -0.213,-0.857 1.123,-1.514 1.995,-1.646 0.524,0.512 5.92,4.324 1.532,3.41 2.972,2.26 7.568,2.293 9.019,6.27 -5.766,1.812 0.666,6.954 3.174,8.452 1.322,0.792 4.308,1.314 4.678,3.114 0.68,3.492 -3.719,2.935 -5.615,3.703 1.95,0.743 9.363,8.347 11.349,7.547 1.017,-0.407 5.798,1.106 3.989,2.185 -2.691,1.615 1.917,3.792 2.816,4.894 -2.812,0.345 -1.223,5.067 -0.196,6.356 -0.333,0.279 -5.719,1.423 -6.028,0.569 -1.763,-2.871 -2.775,-7.113 -5.717,-8.768 -1.277,-0.715 -0.255,-3.75 -2.257,-4.162 -1.256,-0.261 -2.188,-0.219 -4.028,0.305 -2.309,0.658 -3.415,-2.035 -5.394,-0.891 0.288,-4.641 -4.823,-2.501 -6.603,-2.419 -2.477,-1.852 -5.73,-6.464 -9.176,-6.358 -3.553,0.107 -6.581,-0.052 -9.792,-1.672 1.271,-0.846 0.474,-2.545 -0.07,-3.733 -0.998,-2.215 -1.055,-2.692 -0.239,-4.681 1.538,-3.71 -5.02,-5.011 -6.26,-11.751" />
	<path id="dj" d="M 917.454,532.914 c 0,-5.182 -2.016,-10.328 1.127,-15.012 2.362,-3.523 4.53,-6.721 6.581,-10.422 2.391,-4.316 3.593,-2.014 7.006,-1.092 1.739,0.463 1.646,-2.258 2.329,-3.158 1.055,-1.391 2.874,-1.939 4.32,-2.781 1.497,3.277 7.75,9.377 4.736,13.211 -1.557,1.963 -6.375,4.205 -8.69,5.113 -2.367,0.943 -2.67,3.74 -5.382,4.176 1.772,2.295 7.078,-1.477 9.656,-0.479 4.646,1.801 0.02,6.342 -1.234,8.902 -1.878,3.854 -4.854,-0.17 -7.746,0.598 -2.953,0.784 -10.721,4.663 -12.703,0.944" />
	<path id="eg" d="M 619.962,166.46 c -3.184,-5.091 3.365,-10.428 2.563,-15.649 -0.862,-5.611 -5.977,-9.522 2.096,-16.177 0.169,4.088 4.931,2.625 7.406,1.889 4.505,-1.34 8.203,0.155 12.685,0.605 4.902,0.492 9.609,1.582 14.359,2.85 2.009,0.532 2.323,2.719 4.359,3.347 1.816,0.558 3.195,0.335 4.99,0.146 1.2,-0.131 1.76,1.753 3.122,2.032 1.485,0.307 3.009,0.316 4.514,0.466 4.823,0.479 8.046,3.507 12.577,4.266 4.383,0.731 8.573,-2.217 11.709,-4.896 1.627,-1.39 3.15,-2.899 4.641,-4.428 1.271,0.996 2.238,2.022 3.862,1.768 -0.938,-0.469 -0.724,-0.731 -1.947,-0.645 1.575,-0.839 3.164,-2.365 3.541,-4.182 2.742,1.636 5.318,-1.298 8.032,-1.277 -1.835,0.844 -3.588,1.892 -5.004,3.373 0.49,-0.284 11.564,-3.636 6.268,-4.015 3.914,-1.294 6.454,3.183 10.214,2.65 1.795,-0.256 3.499,-2.029 5.396,-1.364 1.762,0.616 2.61,3.179 4.167,4.175 -1.577,-1.113 -3.216,-3.551 -5.307,-3.691 0.619,1.664 -1.688,4.813 1.029,5.461 2.937,0.703 1.572,1.432 3.476,3.218 0,-0.659 5.255,-2.876 1.439,-4.662 4.05,0.944 5.399,4.681 10.144,4.269 1.537,-0.137 6.084,-2.979 5.278,0.394 2.948,-1.87 6.253,-0.783 9.417,-1.729 2.774,-0.837 5.568,-1.927 7.805,-3.867 l 13.575,35.821 c -3.432,4.369 -2.66,12.44 -4.854,17.608 -1.272,3.023 -1.224,4.906 -1.188,8.101 0.038,2.735 -3.445,5.374 -2.594,8.039 -1.66,-1.533 -3.875,-2.225 -5.71,-3.511 -2.327,-1.625 -3.949,-3.996 -5.54,-6.289 -2.014,-2.91 -7.91,-4.802 -7.053,-9.168 0.854,-4.402 -3.38,-7.444 -5.548,-10.547 -2.995,-4.275 -5.145,-9.261 -6.354,-14.365 -2.025,2.163 -4.151,6.884 -2.056,9.354 3.593,4.229 3.223,9.42 6.223,13.791 2.615,3.787 5.252,8.419 8.508,11.648 1.441,1.43 3.087,2.66 4.408,4.217 0.683,0.817 3.523,5.481 0.099,2.937 2.772,2.156 0.485,4.9 2.229,6.677 2.348,2.384 3.6,4.908 4.837,7.915 0.612,1.477 1.604,2.745 2.476,4.066 0.653,1.02 -0.654,2.315 -0.711,3.305 -0.077,1.336 2.089,3.305 2.687,4.441 1.356,2.63 2.841,5.183 4.212,7.8 4.507,8.6 9.056,17.035 13.324,25.763 1.666,3.408 4.12,5.854 6.215,8.923 1.955,2.854 5.372,3.738 7.18,6.651 -1.711,0.082 -3.432,-0.213 -4.972,-0.973 -1.125,4.671 -0.583,11.784 1.793,14.536 2.265,2.615 -2.96,7.868 -6.152,8.022 -1.582,0.082 -2.177,-1.068 -3.78,0.701 -1.261,1.408 -1.908,3.806 -2.484,5.599 -0.654,2.074 -1.631,3.91 -3.916,4.441 -1.859,0.432 -5.183,0.052 -6.174,2.18 -1.8,3.889 -0.703,8.424 -6.189,7.988 -6.39,-0.507 -9.652,-5.682 -13.006,-5.541 -11.088,0.464 -17.459,1.477 -26.156,0.01 0.246,-0.872 1.266,-2.724 0.64,-3.624 -1.579,-2.264 -2.777,1.852 -3.29,2.597 -2.082,2.973 -12.492,1.187 -15.828,1.187 l -89.479,-0.197 -3.199,-120.956 c -0.337,-5.653 -0.204,-11.588 -0.975,-17.185 -0.624,-4.824 -1.873,-11.949 -4.029,-16.289" />
	<path id="et" d="M 768.942,593.67 c 0.316,-2.609 2.796,-3.973 2.805,-6.631 0.021,-4.527 3.207,-4.957 7.013,-4.311 3.375,0.576 6.314,1.66 8.827,-2.08 1.725,-2.588 0.595,-7.074 0.241,-9.914 -0.569,-4.723 -1.269,-9.824 0.522,-14.4 0.687,-1.787 1.607,-3.475 2.273,-5.281 0.959,-2.65 -0.096,-4.422 -0.141,-7.053 -0.057,-2.621 1.373,-5.266 3.07,-7.242 1.955,-2.264 4.877,0.443 4.805,2.9 1.127,-1.24 5.625,-8.123 3.377,-10.279 -1.277,-1.23 0.785,-4.133 1.156,-5.373 0.74,-2.432 -0.889,-5.51 1.274,-7.494 3.474,-3.184 4.856,-7.369 6.999,-11.656 0.906,-1.816 1.462,-3.699 3.675,-3.812 0.914,-0.043 5.264,0.436 5.657,-0.662 1.21,-3.342 0.929,-7.494 1.444,-10.992 0.3,-1.99 1.115,-3.533 1.936,-5.361 1.472,-3.291 1.12,-6.359 1.768,-9.773 1.274,-6.465 3.978,-4.096 8.871,-4.148 1.882,-0.021 2.285,-3.867 4.924,-2.336 2.067,1.205 3.229,3.961 4.54,5.836 1.999,-4.949 3.968,-9.932 5.299,-15.107 0.765,1.182 1.632,2.672 2.902,3.377 1.396,0.768 2.967,0.148 3.822,1.836 1.652,3.305 3.673,3.695 7.127,3.074 1.28,-0.229 2.625,-0.582 3.638,-1.453 0.598,-0.521 1.125,-2.498 1.749,-2.672 1.167,-0.336 3.061,3.656 3.29,4.529 3.291,-4.135 8.851,0.66 12.223,-0.24 4.641,-1.23 9.396,3.713 13.359,5.387 5.304,2.25 6.832,9.098 11.154,12.543 2.597,2.068 6.005,3.727 7.603,6.779 1.463,2.799 2.166,5.133 4.758,7.129 4.397,3.361 6.286,5.939 3.385,11.037 -3.427,6.02 -8.114,9.443 -7.026,16.797 0.544,3.652 -0.891,8.102 4.331,7.74 3.065,-0.213 6.087,-1.674 9.057,-2.426 2.399,-0.611 3.323,1.498 5.563,0.76 -0.234,3.82 -4.649,7.037 -2.528,11.475 2.545,5.33 4.877,6.693 8.182,11.439 1.106,1.582 3.061,6.848 4.308,8.311 1.249,1.453 2.325,0.984 3.783,2.174 2.235,1.834 5.69,5.709 8.531,6.721 11.396,4.113 21.646,8.389 33.009,12.58 5.387,1.988 9.746,4.352 15.324,5.662 5.175,1.219 11.798,0.377 17.02,0.377 l -47.737,56.65 c -2.92,3.41 -5.231,3.734 -9.372,3.186 -6.809,-0.914 -16.32,-1.309 -25.187,6.842 -2.346,2.166 -3.157,4.844 -6.574,5.512 -3.149,0.633 -6.476,0.527 -9.389,2.117 -3.15,1.723 -2.923,4.676 -7.073,3.727 -3.472,-0.803 -8.33,2.061 -11.4,-1.33 -1.289,-1.426 -2.337,-3.676 -4.517,-3.922 -2.095,-0.254 -4.894,1.271 -6.705,2.102 -2.846,1.301 -7.582,3.824 -9.396,6.504 -1.969,2.918 -3.377,5.098 -4.725,7.32 -2.163,-2.074 -7.02,-2.385 -9.827,-2.131 -2.168,0.197 -3.685,-1.541 -5.625,-1.947 -2.016,-0.43 -4.266,0.512 -6.289,0.322 -8.205,-0.766 -1.277,-1.82 -22.919,-14.842 -3.685,-2.223 -9.062,0.309 -13.575,-1.287 -2.096,-0.738 -5.273,-4.865 -6.213,-6.758 -1.311,-2.643 0.93,-6.145 0.072,-9.057 -0.764,-2.621 -6.136,-4.203 -7.932,-1.912 -1.087,-1.055 -2.615,-4.184 -3.516,-5.59 -2.081,-3.227 -2.816,-7.564 -4.219,-11.131 -1.057,-2.686 -1.579,-5.715 -3.039,-8.227 -0.673,-1.166 -1.451,-1.574 -2.59,-2.15 -1.252,-0.627 -1.285,-1.871 -2.213,-2.693 -0.569,-0.373 -0.807,-0.682 -1.477,-0.773 -1.763,-0.5 -1.94,-2.398 -2.89,-3.672 -2.103,-2.852 -3.522,-6.338 -6.326,-8.625 -2.044,-1.693 -4.505,-2.82 -7.125,-3.145 -2.441,-0.291 -5.816,-0.312 -7.121,-2.857" />
	<path id="il" d="M 773.754,143.152 c 0.782,-1.064 5.018,-6.164 3.07,-7.393 3.328,-5.531 4.115,-11.953 5.32,-18.164 0.375,-1.896 0.422,-5.025 1.959,-6.389 1.144,-1.022 -0.604,-3.239 0.45,-4.379 0.975,-1.04 3.314,0.012 4.428,0.152 2.632,0.324 2.294,-2.406 3.109,-4.008 3.849,0.199 0.976,14.909 1.294,19.207 -0.464,-1.715 -3.201,-3.979 -5.264,-4.532 -2.473,-0.663 -3.244,2.456 -3.727,4.366 -0.532,2.146 -1.726,9.748 1.392,9.35 6.485,-0.84 -2.779,3.56 -1.532,8.203 0.708,2.597 7.406,-2.379 8.784,-2.394 -0.323,2.347 -0.225,3.82 -0.104,7.562 0.09,3.34 -1.261,7.673 -2.25,10.594 -1.94,5.695 -0.516,15.48 -4.378,21.094 l -12.544,-33.27" />
	<path id="iq" d="M 844.021,101.367 c 9.738,-4.776 18.288,-9.438 26.941,-15.389 2.766,-1.892 5.74,-4.23 7.312,-6.649 3.038,-4.641 0.609,-10.77 1.224,-12.511 0.072,-7.214 2.014,-8.107 1.594,-11.571 -0.467,-3.872 -5.977,-10.676 -1.725,-13.992 2.441,-1.898 5.465,-1.818 7.978,-3.916 2.114,-1.761 7.786,-6.373 6.092,-8.229 -0.767,-0.851 0.773,0.075 1.927,-0.273 1.91,-0.574 2.531,-2.365 3.363,-3.889 0.827,-1.49 9.305,-0.107 11.177,0.604 1.475,0.567 2.956,1.102 4.515,1.423 2.545,0.525 3.312,-1.123 5.533,-1.54 5.59,-1.033 1.768,6.296 4.95,6.012 2.306,-0.213 3.225,-3.712 5.774,-3.616 3.226,0.119 3.108,5.608 4.533,7.512 0.675,0.9 1.557,0.738 2.109,1.873 0.68,1.38 -0.225,3.342 0.947,4.477 2.446,2.391 7.823,4.748 5.625,8.883 3.63,-0.816 5.128,2.449 6.74,3.061 3.089,1.174 3.136,-1.272 9.825,0.482 -0.586,2.508 -3.507,1.927 -4.554,3.867 -1.77,3.277 3.223,5.717 3.522,8.693 0.375,3.933 -4.423,-0.389 -4.275,3.593 0.062,1.793 -1.88,1.495 -2.384,3.183 -0.551,1.913 0.378,3.333 0.701,5.096 -1.209,-0.005 -2.325,-0.328 -3.37,-0.971 -0.272,1.617 -1.401,2.851 -0.117,4.187 1.383,1.455 2.433,2.079 1.659,4.47 -0.731,2.28 -2.775,2.791 -0.811,4.572 1.683,1.519 3.159,3.333 5.043,4.601 1.875,1.269 11.724,9.691 6.108,11.267 2.177,0.527 1.631,3.075 3.431,2.653 2.588,-0.601 4.036,1.048 6.113,2.22 3.811,2.151 6.229,7.035 11.512,7.445 2.494,0.195 7.111,8.342 9.316,10.289 3.345,2.953 1.282,6.005 0.457,10.062 -0.398,1.94 -0.302,7.45 2.578,7.656 1.001,0.073 2.691,-0.138 3.488,0.87 1.017,1.286 1.012,3.897 0.777,5.475 -0.511,3.511 1.317,4.54 5.241,7.366 1.982,1.426 1.542,5.846 4.331,6.523 -1.439,0.105 -10.083,-1.123 -10.275,-2.705 1.191,2.811 -3.754,0.556 -5.676,0.474 -2.792,-0.124 -6.406,0.536 -7.674,3.223 -2.754,5.826 -2.25,17.431 -11.555,16.364 l -23.475,-2.687 c -7.866,-1.122 -8.156,-5.252 -15.343,-9.769 -19.88,-14.625 -38.925,-32.146 -61.181,-41.896 -8.004,-3.504 -15.104,-3.209 -22.332,-4.801 4.528,-4.912 -0.928,-2.746 -2.282,-4.832 -0.343,-0.523 -0.624,-1.557 -0.328,-2.077 1.12,-1.303 0,-2.627 -0.698,-4.532 -1.554,-4.209 -3.045,-8.346 -4.381,-12.631" />
	<path id="jo" d="M 787.423,178.833 c -0.31,-5.386 1.867,-10.519 1.912,-15.876 0.068,-6.16 2.803,-10.726 3.549,-16.585 0.318,-2.446 -0.39,-4.936 -0.207,-7.415 0.192,-2.344 0.976,-4.652 1.046,-6.938 0.194,-4.786 -0.479,-10.535 -0.651,-15.366 -0.15,-4.102 4.969,-2.841 7.303,-1.224 3.839,2.66 7.331,6.694 12.511,5.672 5.218,-1.026 10.013,-5.925 14.325,-8.801 5.494,-3.668 11.016,-7.725 16.791,-10.936 1.776,5.712 4.125,11.227 6.084,16.877 -1.987,0.209 -0.685,2.923 0.586,3.246 2.025,0.523 4.575,0.202 1.308,3.645 -10.289,6.289 -20.599,9.621 -32.958,12.703 l 18.437,19.351 c -1.659,0.813 -6.042,0.712 -7.219,2.198 -1.369,1.711 0.173,5.163 -1.277,6.872 -2.44,2.866 -8.585,0.427 -11.742,3.44 -3.601,3.436 -4.774,9.9 -9.921,11.923 -4.624,1.836 -15.153,-1.563 -19.877,-2.786" />
	<path id="kg" d="M 1314.049,-27.542 c 2.518,-4.401 7.495,-3.199 10.069,-2.058 1.102,0.48 7.129,2.407 4.79,4.47 2.531,-0.574 5.096,-4.428 6.445,-5.602 2.597,-2.255 3.136,-2.775 6.689,-1.23 0.919,0.396 1.753,1.375 2.62,1.691 1.411,0.504 1.195,-2.036 2.498,0.05 0.765,1.226 3.348,-0.907 4.88,-0.855 -4.833,-2.564 4.517,-3.117 5.473,-3.054 -0.626,-1.217 -1.286,-2.265 -1.139,-3.694 2.665,1.142 4.641,1.826 6.077,-1.308 0.347,-0.769 4.818,-2.198 3.134,-3.221 -0.874,-0.524 -3.894,-0.801 -5.009,-0.777 -3.656,0.067 -5.859,-4.777 -9.811,-2.412 -0.146,-4.029 -2.531,-2.257 -4.801,-4.264 -2.348,-2.066 -5.357,-4.035 -6.623,-6.344 0.225,1.328 0.956,3.098 0.256,4.418 -0.477,0.71 -1.142,1.063 -2.025,1.045 0.422,0.912 0.422,1.826 0,2.732 -2.826,-2.657 -8.824,0.666 -10.617,-3.789 -0.949,-2.355 -2.011,-2.628 -4.319,-1.913 -1.882,0.574 -4.022,-1.807 -5.946,-1.852 0.802,-5.461 10.001,-9.715 13.507,-13.015 -4.731,-2.454 -7.783,0.141 -5.076,-5.908 0.717,-1.599 0.021,-2.817 1.856,-3.86 1.898,-1.088 4.437,-0.476 6.074,-1.559 3.408,-2.267 11.988,0.946 15.427,2.022 1.21,0.263 2.313,0.769 3.305,1.51 2.019,1.49 2.977,0.797 5.267,1.04 2.264,0.234 4.388,3.042 6.757,2.25 -2.334,-2.2 -4.472,-10.298 -0.946,-12.239 0.841,-0.466 7.683,-2.1 6.876,-3.511 4.694,1.538 9.343,4.013 13.729,6.221 1.702,0.849 9.57,3.646 11.672,2.625 1.59,-0.792 0.204,-2.737 2.412,-2.737 3.199,0 6.462,1.214 9.654,0.801 2.334,-0.305 4.507,-1.441 6.883,-1.441 2.496,0 4.613,1.85 7.151,1.088 2.271,-0.678 4.872,0.033 7.122,0.424 2.933,0.521 5.766,-0.061 8.691,0.129 4.894,0.312 12.107,2.121 15.933,5.27 1.646,1.35 2.32,3.171 4.767,3.077 2.109,-0.08 3.41,-0.04 5.225,1.001 2.271,1.301 5.899,3.318 6.979,5.863 0.319,0.748 -5.953,2.871 -7.169,3.882 -3.926,3.251 -10.013,4.688 -14.4,7.587 -2.039,1.348 -3.194,2.121 -3.157,4.523 0.035,2.053 -1.664,4.43 -4.45,4.19 -2.384,-0.206 -4.332,0.464 -6.729,0.735 -2.707,0.31 -5.18,-0.513 -7.84,-0.595 -3.527,-0.108 -3.377,4.207 -3.822,7.216 -1.135,7.774 -5.143,4.99 -9.663,6.286 -5.188,1.491 -4.367,-3.539 -6.673,-5.402 -1.327,-1.068 -3.554,2.265 -4.577,2.864 -2.391,1.423 -4.093,-0.201 -6.673,-0.733 -0.244,1.108 -0.132,2.177 0.333,3.216 -2.086,0.054 -3.378,1.929 -4.473,3.426 -1.621,2.199 -4.954,0.867 -6.637,3.199 -2.391,3.316 3.698,7.418 -0.408,9.964 -1.692,1.05 -3.82,-0.877 -5.62,0.579 -2.143,1.725 -4.856,1.398 -7.435,1.082 -2.963,-0.36 -9.318,-0.975 -9.975,3.612 -3.773,-3.673 -6.535,-1.155 -8.817,-3.155 -0.226,0.551 -0.147,-1.197 -1.018,-2.027 -0.857,0.078 -2.118,-0.243 -2.958,-0.407 -0.975,-0.624 -0.405,-1.662 -1.363,-2.206 -0.688,-0.396 -6.678,4.473 -9.202,4.095 -1.889,-0.288 -2.175,-0.797 -3.38,-2.309 -1.678,-2.116 -4.715,-1.23 -6.851,-0.417 -0.067,-0.586 -0.147,-1.174 -0.199,-1.768 -1.284,0.945 -3.188,1.188 -5.297,0.922 -4.994,-0.629 -6.313,1.949 -8.357,0.623 -2.265,-1.465 -2.923,-11.056 0.199,-7.167 0.021,-1.153 0.492,-2.309 0.64,-2.772" />
	<path id="pk" d="M 1211.275,169.188 c 7.093,1.594 13.58,5.079 20.531,7.16 8.269,2.478 14.921,-0.075 23.166,-0.243 2.935,-0.059 5.399,1.12 8.24,1.542 2.925,0.427 4.945,-1.641 7.505,-2.573 3.377,-1.229 6.539,0.164 9.904,-0.015 2.841,-0.143 5.522,-1.594 8.278,-2.231 3.221,-0.738 9.427,-1.274 11.476,-4.277 1.214,-1.793 -1.679,-2.768 -1.336,-4.502 0.824,-4.221 -1.123,-7.622 -0.727,-11.732 0.407,-4.165 1.223,-3.228 3.68,-5.693 1.514,-1.512 1.872,-4.036 3.886,-5.081 2.095,-1.1 2.796,1.122 4.842,1.356 3.452,0.398 6.504,-0.698 9.525,-2.315 -1.247,-1.301 -3.502,-1.388 -4.006,-3.377 2.956,-0.054 6.045,-1.915 7.61,-4.346 1.88,-2.871 6.539,2.014 6.68,-1.596 2.217,1.036 3.136,0.546 4.495,2.854 1.125,1.95 2.921,1.279 4.5,0.104 4.195,-3.157 3.15,-8.986 1.468,-13.153 -1.088,-2.677 1.012,-3.094 1.584,-5.4 0.44,-1.798 0.506,-4.535 -0.141,-6.29 -0.773,-2.096 1.439,-2.464 2.925,-2.789 2.452,-0.549 3.745,0.276 5.981,-1.52 2.729,-2.18 2.639,-2.294 1.533,-4.992 -0.934,-2.252 -2.25,-4.731 -4.374,-6.074 -4.162,-2.625 -4.8,-6.403 1.008,-4.821 3.971,1.083 13.57,2.36 14.64,-3.279 0.323,-1.666 0.309,-2.915 -0.982,-4.04 -0.551,-0.488 -3.063,-2.098 -2.576,-3.092 0.422,-0.443 0.973,-0.626 1.608,-0.551 -0.75,-1.596 0.558,-2.822 1.432,-3.947 0.818,-1.028 3.687,-3.382 3.687,-4.654 0.023,-1.197 0.403,-2.267 1.163,-3.197 0.581,-0.824 -1.448,-1.659 -1.726,-2.184 -0.227,-0.584 -0.074,-1.02 0.465,-1.297 0.899,-0.946 -0.638,-2.866 -0.889,-3.75 -0.354,-1.186 -2.384,-3.991 -3.204,-5.016 -1.167,-1.465 -3.075,-2.456 -4.477,-3.675 -1.917,-1.652 3.835,-8.719 5.71,-8.14 2.559,0.799 2.751,-2.002 4.27,-3.532 1.61,-1.624 3.694,-2.665 5.857,-3.347 4.634,-1.463 9.598,-1.477 14.407,-1.666 2.442,-0.092 5.836,-1.367 8.086,-0.237 2.215,1.108 2.384,1.726 4.425,0.209 2.782,-2.072 9.745,-5.531 11.729,-0.733 1.987,-3.562 7.139,-0.636 8.716,1.783 1.451,2.236 5.473,1.015 7.819,3.199 1.659,1.552 2.742,3.312 3.318,5.506 0.422,1.586 0.26,4.319 0.879,5.686 0.68,1.49 4.092,3.518 5.367,4.666 1.646,1.479 3.862,-0.996 5.396,-1.395 0.295,6.929 16.272,9.239 21.799,8.035 -1.446,1.659 -10.969,6.117 -10.224,8.348 0.345,1.016 -2.699,3.736 -1.483,2.754 0.656,-0.527 -1.739,1.381 -2.438,2.469 -0.675,1.092 -10.505,2.391 -12.22,3.581 -4.875,3.389 -9.214,0.724 -14.953,-0.48 -4.641,-0.978 -10.346,-4.069 -14.836,-1.292 -3.078,1.883 -5.129,6.137 -1.252,7.763 3.539,1.491 -1.383,3.598 1.565,4.533 0.971,0.307 7.557,0.028 5.011,2.54 -2.311,2.281 -5.32,3.896 -0.988,6.492 4.045,2.434 -1.098,5.785 0.975,8.227 1.242,1.453 3.305,2.255 4.803,3.378 0.677,0.442 1.195,1.057 1.188,1.868 -0.021,1.691 0.605,1.879 3.031,2.273 4.725,0.757 2.322,4.961 6.621,5.887 2.433,0.525 6.977,0.989 8.723,3.043 2.133,2.517 -4.654,4.976 -6.032,5.608 -3.49,1.619 -7.533,4.825 -3.954,8.351 2.627,2.573 -0.954,9.434 3.588,9.525 -0.438,1.855 -3.588,3.318 -5.317,5.383 -2.166,2.6 -7.123,7.836 -4.728,9.807 4.317,3.556 -3.755,5.555 -5.479,6.42 -1.913,0.963 -1.917,4.148 -2.222,5.98 -0.516,3.117 -1.351,6.324 -2.766,9.16 -2.089,4.223 -5.675,4.79 -8.63,8.031 -1.195,1.301 -1.772,3.619 -1.922,5.337 -0.272,3.04 -3.525,4.885 -4.601,7.568 -2.295,5.692 -5.628,3.864 -11.042,5.311 -1.86,0.497 -3.949,2.391 -5.93,2.196 -2.391,-0.229 -3.474,-3.112 -4.659,-4.781 -2.779,-3.9 -6.933,2.021 -8.016,4.458 -1.922,4.326 -5.058,8.034 -6.811,12.29 -2.147,5.238 0.824,8.166 5.812,9.422 4.659,1.172 6.963,1.416 6.52,7.125 -0.243,3.261 -0.853,10.566 4.734,10.629 1.613,0.017 3.474,-1.16 4.895,0.141 1.43,1.285 0.271,4.803 1.547,6.609 2.582,3.713 5.446,6.485 6.663,11.067 0.464,1.756 1.465,1.23 -0.228,2.454 -1.373,0.978 0.86,4.229 2.021,4.458 -3.042,2.292 -6.211,5.161 -8.775,0.864 -1.195,-1.992 -3.019,-0.501 -4.523,0.104 -0.764,0.213 -1.505,0.464 -2.233,0.752 -1.221,0.626 -0.45,2.138 -1.756,2.7 -4.331,1.828 -9.185,-2.346 -13.725,-2.095 -2.419,0.126 -5.627,0.555 -7.885,-0.561 0.134,1.776 1.723,6.75 -1.497,6.75 -2.745,0 -6.897,0.075 -6.691,3.857 -0.186,-2.198 -0.45,-2.145 -0.812,0.162 -1.068,-0.936 -1.778,-2.213 -2.559,-3.377 0.566,1.005 0.722,2.081 0.464,3.208 -1.182,-0.724 -2.189,-1.638 -3.07,-2.728 0.731,2.937 -1.585,1.274 -3.37,2.25 0,-0.858 0,-1.721 0,-2.576 -1.962,1.408 -4.453,-1.244 -2.231,-2.566 -2.628,0.494 -6.319,-3.326 -3.544,-5.466 -3.065,-1.755 -1.425,-6.82 -3.947,-8.086 -1.425,-0.7 -8.594,-1.01 -8.386,-3.305 0.403,-4.631 -0.651,-6.005 -2.93,-9.668 -1.72,-2.721 -6.827,-5.52 -7.711,-0.64 2.775,-0.141 4.597,-2.604 6.087,1.123 -2.941,-1.906 -6.256,-0.731 -9.288,0.223 -3.171,0.998 -6.206,-0.104 -9.206,0.804 -1.629,0.492 -13.02,0.337 -10.111,3.474 -1.331,0.391 -2.189,-0.23 -2.25,-1.61 -4.406,2.28 -7.898,-4.301 -10.289,-3.214 0.375,0.539 0.736,1.076 1.123,1.608 -2.223,0.457 -11.309,-2.468 -8.993,2.892 -2.325,-1.174 -19.706,-2.463 -18.179,1.925 -1.164,-0.042 -2.071,-1.741 -3.023,-2.285 -1.641,-0.936 -1.645,1.274 -2.648,1.858 -4.043,2.354 -6.984,-0.318 -6.855,-3.889 0.186,-4.809 -0.958,-22.204 8.36,-20.109 -2.737,-7.172 13.788,-3.29 14.602,-7.23 0.356,-1.715 0.976,-8.262 0.249,-8.845 -1.766,-1.397 -4.098,-0.38 -6.08,-0.511 -2.854,-0.179 -2.436,-4.883 -2.494,-6.813 -0.131,-3.713 -1.298,-8.482 -2.475,-12.035 -0.534,-1.644 -3.44,-1.744 -4.88,-2.644 -2.404,-1.481 -4.877,-2.379 -7.425,-3.561 -5.648,-2.615 -7.979,-6.443 -10.847,-11.662 -3.047,-5.52 -7.927,-9.931 -12.315,-14.359" />
	<path id="sd" d="M 628.465,558.33 c 0.685,-0.703 0.82,-2.053 1.425,-2.658 0.956,-0.955 2.367,-1.799 3.318,-2.748 1.481,-1.484 0,-4.662 1.52,-6.166 1.073,-1.07 4.418,0.52 5.686,-0.76 0.881,-0.879 6,-2.439 6.83,-1.611 1.12,1.125 0.973,4.859 1.521,5.408 0.479,0.471 2.166,0.168 2.56,0.568 0.738,0.732 0.787,2.131 1.237,3.031 0.296,0.598 1.013,1.301 1.322,1.617 1.142,1.133 0.527,4.219 1.519,5.217 0.663,0.654 2.768,1.646 3.527,1.885 1.945,0.66 9.804,-1.941 10.894,-3.037 0.246,-0.232 1.498,0.141 1.721,0.189 3.11,0.633 7.795,0.676 10.134,0.281 1.182,1.66 1.838,4.121 3.047,5.322 1.299,1.309 10.191,0.506 11.938,-0.379 0.598,-0.295 0.273,-1.688 0.569,-2.271 0.794,-1.59 3.229,-3.656 5.027,-4.549 2.06,-1.041 6.888,-0.162 8.058,-1.336 0.813,-0.816 -0.767,-5.203 0.377,-6.363 1.535,-1.541 4.336,-2.777 5.881,-3.691 4.373,1.041 6.228,4.33 8.918,7.018 1.517,1.518 3.656,2.221 4.934,3.516 0.377,0.365 0.837,-0.557 0.959,-0.676 0.323,-0.324 3.313,-0.084 3.975,-0.084 0.825,0 3.042,0.189 3.604,-0.381 2.937,-2.938 5.312,-7.389 8.447,-10.525 1.453,-1.469 1.636,-5.055 3.04,-6.447 2.604,-2.604 6.372,-4.988 7.495,-8.352 -3.387,-2.643 0.899,-10.285 -1.329,-12.518 -0.295,-0.295 -4.701,-4.131 -4.563,-4.27 1.488,-1.484 9.668,0.879 10.723,-1.23 0.694,-1.379 -0.169,-3.223 0,-4.277 0.862,-0.457 8.921,-0.072 8.921,0 0,1.689 -1.505,7.67 -2.363,9.393 -0.855,1.723 1.852,12.127 2.363,14.223 0.253,1.006 -0.647,4.754 -0.277,5.129 0.793,0.787 2.78,1.137 3.795,1.895 4.024,3.018 6.274,8.832 9.209,11.758 0.946,0.941 -0.08,6.188 -1.714,4.836 0.323,9.535 -0.576,3.229 5.104,5.119 0.148,-1.424 0.443,-2.83 0.9,-4.24 v 0 c 1.055,-3.227 2.604,-5.568 2.475,-9.055 -0.141,-3.924 -0.518,-6.59 2.025,-9.797 1.929,-2.434 5.22,-0.398 5.158,2.314 1.355,-1.49 1.997,-2.699 3.052,-4.885 2.644,-5.51 -1.266,-5.441 0,-6.926 3.068,-3.613 0.76,-9.898 4.095,-12.098 3.209,-2.111 4.493,-9.178 6.522,-12.389 2.062,-3.277 4.734,-1.771 7.932,-2.215 2.123,-0.295 1.731,-6.658 1.767,-8.15 0.104,-4.219 2.569,-7.312 3.418,-11.322 1.237,-5.791 0.302,-12.186 0.103,-16.242 -0.225,-4.361 -1.561,-9.678 0.019,-12.637 2.208,-4.139 2.895,-9.773 4.772,-14.885 0.727,-1.986 1.763,-4.164 2.212,-6.238 0.507,-2.256 -0.698,-4.025 -0.295,-6.248 0.417,-2.264 0.075,-6.918 2.17,-8.15 1.515,-0.891 5.71,0.797 6.296,-1.252 1.125,-3.975 0.539,-4.396 4.927,-6.057 2.418,-0.922 7.926,-2.898 9.253,-5.053 1.01,-1.639 3.581,-6.07 4.174,-6.729 -0.372,-3.01 -5.473,-2.672 -5.622,-5.422 -2.082,1.875 -7.945,-7.902 -11.07,-8.439 -5.43,-0.921 -7.038,-11.426 -7.277,-15.975 -0.33,-6.483 -2.277,-12.328 -1.425,-18.703 0.375,-2.82 -0.576,-6.043 -1.711,-8.602 -1.556,-3.535 1.585,-5.138 2.362,-1.646 -0.218,-4.589 -5.475,-7.481 -6.75,-11.733 -1.527,-5.142 0.68,-7.125 -4.068,-10.427 -3.567,-2.503 -5.864,-7.23 -9.596,-9.186 -4.167,-2.177 -7.549,-3.881 -8.681,-8.836 -1.51,1.526 -5.478,7.53 -7.882,6.263 -3.15,-1.646 -4.151,2.518 -4.838,4.443 -1.294,3.689 -2.404,5.792 -6.429,6.483 -3.979,0.688 -5.025,1.528 -5.851,5.526 -1.812,8.771 -10.375,2.081 -14.517,-0.183 -3.601,-1.955 -9.907,-0.464 -13.833,-0.296 -5.138,0.211 -10.334,0.338 -15.417,-0.539 1.683,-1.549 0.806,-7.026 -1.679,-3.054 -2.456,3.931 -5.625,3.214 -9.775,3.214 -10.575,0 -21.164,0 -31.739,0 -21.556,0 -43.425,-0.204 -64.98,-0.204 0.434,12.851 0.891,25.917 1.111,38.774 -5.56,0 -11.133,0 -16.697,0 l 1.599,83.096 c -2.766,-0.855 -5.632,-1.91 -8.396,-0.479 -2.278,1.195 -4.453,-0.133 -6.771,1.01 -5.407,2.672 0.288,6.723 -3.082,11.025 -2.715,3.449 -3.197,7.199 -7.121,9.281 -2.479,1.305 0.062,7.438 1.58,8.887 -5.625,4.5 -9.258,6.027 -5.222,13.627 1.532,2.896 -0.375,4.107 -2.749,5.777 -2.511,1.771 -2.953,4.064 -4.095,6.795 2.182,5.906 6.337,0.352 10.008,2.486 2.173,1.268 -1.118,3.35 -0.117,5.053 1.224,2.09 1.88,4.855 1.204,7.238 0.579,-0.289 1.163,-0.555 1.761,-0.805 1.743,2.812 -1.533,5.926 -0.101,8.777 1.422,2.842 5.051,3.223 6.285,5.277 1.805,3.027 -2.001,5.805 -0.665,8.75 1.385,3.047 3.82,5.338 6.131,7.664 4.158,4.158 7.791,10.318 7.826,16.27 0.042,1.121 0.253,2.193 0.253,3.227 0.021,0.027 9.963,0 9.963,0 1.133,0.422 1.498,-0.527 2.372,-1.357 1.552,-0.133 1.87,2.012 2.78,-0.936 1.126,-0.705 1.787,-0.839 2.594,-1.943 z" />
	<path id="ss" d="M 619.882,581.07 c -0.072,0.998 -0.31,2.023 -0.31,2.572 0,3.67 4.781,3.361 7.254,3.734 1.699,0.268 3.601,0.668 4.868,1.904 1.35,1.344 1.908,2.666 3.708,3.812 1.781,1.139 2.732,2.031 2.732,3.641 0,1.457 -2.25,3.074 -1.017,4.43 3.496,3.91 7.889,5.711 12.379,8.309 2.325,1.324 1.66,2.646 3.075,4.58 1.018,1.4 3.572,1.898 4.195,3.521 0.703,1.83 -1.753,3.25 -0.41,5.162 0.745,1.055 2.623,1.877 2.623,3.348 -0.021,3.467 3.651,4.078 6.394,6.068 2.414,1.742 6.225,2.426 6.522,5.961 0.209,2.326 -0.485,4.852 1.16,6.826 1.19,1.436 1.808,3.918 3.38,4.854 2.182,1.281 2.97,2.148 3.347,4.736 0.382,2.73 3.971,3.033 5.318,4.771 0.663,0.836 2.449,1.439 3.358,2.016 3.432,2.172 4.172,0.713 7.399,-1.35 4.877,-3.115 5.568,0.225 9.773,0.568 4.235,0.359 3.025,-8.176 8.093,-3.824 1.666,1.436 1.922,3.291 3.117,4.873 1.125,1.484 2.021,3.432 3.271,4.795 2.78,3.059 10.866,4.178 8.367,9.605 2.238,-0.527 4.77,-0.414 5.124,2.404 0.975,-2.418 4.097,-6.166 7.247,-5.455 1.907,0.436 2.766,2.945 4.964,1.953 1.274,-0.562 3.474,-3.148 4.725,-1.426 1.667,2.291 2.876,3.375 5.864,4.436 -1.927,-4.576 7.924,-3.943 12.365,-6.258 2.478,-1.287 5.164,1.744 8.4,1.787 1.205,0.02 5.086,-2.842 5.665,-3.523 3.194,-3.775 7.326,-11.715 12.248,-12.459 7.671,-1.16 16.974,-0.451 24.837,-0.873 -1.423,-1.799 -2.899,-3.121 -2.899,-5.582 0,-1.955 1.249,-4.281 0.495,-6.215 -0.656,-1.688 -0.059,-1.014 -1.969,-2.658 -1.985,-1.701 -4.163,-2.121 -6.057,0.338 -1.219,-1.182 -0.67,-2.996 -2.119,-3.826 -1.232,-0.674 -1.654,-2.439 -2.273,-3.613 -1.636,-3.15 -1.746,-6.68 -3.36,-9.822 -1.351,-2.623 -1.212,-6.898 -3.872,-8.924 -2.444,-1.842 -3.668,-3.783 -5.602,-4.668 -1.58,-0.732 -3.678,-5.76 -5.789,-8.311 -1.898,-2.291 -3.445,-4.191 -6.638,-5.836 -2.88,-1.492 -6.178,-0.865 -8.925,-2.465 -4.182,-2.438 0.755,-4.166 1.19,-6.719 0.544,-3.137 -0.079,-5.365 3.745,-5.527 2.494,-0.111 5.4,0.93 7.754,0.676 7.727,-0.822 4.603,-9.9 4.211,-14.977 -0.236,-2.707 -0.325,-5.4 0,-8.051 -5.709,-1.891 -4.809,4.422 -5.135,-5.125 1.622,1.35 2.648,-3.896 1.711,-4.838 -2.92,-2.926 -5.175,-8.74 -9.206,-11.76 -1.003,-0.758 -3.005,-1.109 -3.792,-1.895 -0.375,-0.375 0.531,-4.123 0.29,-5.119 -0.529,-2.104 -3.231,-12.512 -2.376,-14.232 0.862,-1.725 2.376,-7.701 2.376,-9.391 0,-0.072 -8.053,-0.457 -8.927,0 -0.176,1.055 0.687,2.896 0,4.275 -1.055,2.109 -9.223,-0.254 -10.723,1.232 -0.134,0.131 4.266,3.973 4.561,4.268 2.225,2.229 -2.062,9.873 1.324,12.518 -1.123,3.371 -4.892,5.754 -7.493,8.354 -1.401,1.393 -1.575,4.986 -3.04,6.447 -3.136,3.145 -5.496,7.588 -8.439,10.527 -0.567,0.568 -2.782,0.379 -3.614,0.379 -0.673,0 -3.656,-0.225 -3.975,0.084 -0.108,0.105 -0.579,1.027 -0.947,0.676 -1.284,-1.279 -3.427,-2.002 -4.936,-3.523 -2.695,-2.688 -4.552,-5.975 -8.928,-7.01 -1.54,0.928 -4.345,2.166 -5.878,3.691 -1.142,1.139 0.42,5.547 -0.373,6.363 -1.167,1.162 -5.997,0.295 -8.064,1.332 -1.793,0.895 -4.232,2.949 -5.027,4.553 -0.295,0.584 0.035,1.977 -0.553,2.271 -1.758,0.887 -10.637,1.701 -11.953,0.375 -1.21,-1.199 -1.859,-3.658 -3.038,-5.318 -2.344,0.381 -7.031,0.346 -10.142,-0.281 -0.213,-0.041 -1.462,-0.428 -1.713,-0.189 -1.113,1.098 -8.948,3.676 -10.903,3.037 -0.755,-0.238 -2.854,-1.252 -3.513,-1.885 -1.001,-0.998 -0.378,-4.092 -1.526,-5.217 -0.316,-0.316 -1.026,-1.02 -1.317,-1.617 -0.449,-0.9 -0.511,-2.299 -1.242,-3.029 -0.389,-0.402 -2.088,-0.1 -2.566,-0.57 -0.531,-0.549 -0.382,-4.281 -1.512,-5.406 -0.824,-0.83 -5.953,0.738 -6.824,1.609 -1.275,1.273 -4.617,-0.309 -5.687,0.76 -1.519,1.504 -0.047,4.682 -1.519,6.166 -0.961,0.949 -2.372,1.793 -3.33,2.75 -0.612,0.604 -0.715,1.953 -1.423,2.656 -0.643,0.648 -0.989,1.111 -2.628,1.955 -1.01,3.137 -1.45,0.189 -2.77,0.943 -0.34,0.562 -1.315,1.35 -2.377,1.35 h -9.959 c -0.164,2.777 -0.82,4.254 -1.755,4.943 -1.357,1.863 -2.745,2.404 -2.229,5.062 0.591,-0.215 1.175,-0.43 1.766,-0.641 0.471,1.785 -0.521,3.375 -1.125,4.979 2.932,0.525 9.635,-0.33 11.812,2.018 0.633,0.303 0.827,1.047 0.677,2.131 h 0.028 v 0.024 z" />
	<path id="sy" d="M 792.738,103.293 c 1.401,-1.771 4.102,-5.466 6.586,-5.943 -3.815,-3.546 1.624,-5.775 4.818,-4.823 -2.803,-3.406 1.378,-3.82 2.33,-7.074 0.534,-1.807 -1.711,-5.458 -3.778,-5.84 -2.344,-0.437 2.133,-3.82 -1.519,-2.794 -6.08,1.711 -6.53,-2.173 -6.823,-5.323 -0.255,-2.866 1.587,-8.093 -0.977,-10.202 -2.061,-1.689 -0.457,-6.183 -0.525,-8.653 -0.072,-1.855 3.38,1.064 4.05,1.393 0.062,0.244 0.835,-1.646 2.312,-2.531 1.813,-1.095 0.59,-3.553 0.906,-5.26 1.578,0.378 3.246,-0.077 4.824,-0.164 -1.259,-2.58 -2.082,-3.25 -2.447,-6.355 -0.127,-1.13 -0.03,-4.329 1.561,-4.726 1.188,-0.298 2.391,-0.312 3.35,0.192 2.555,1.346 3.063,3.633 5.695,3.225 3.218,-0.504 5.342,-0.881 8.419,-2.21 3.149,-1.356 5.458,-3.246 8.985,-2.739 2.611,0.375 4.13,2.224 6.352,3.258 2.513,1.179 7.435,0.688 10.158,0.454 6.956,-0.598 11.92,-4.57 18.213,-7.085 6.373,-2.545 13.315,1.021 19.843,-1.577 3.345,-1.331 8.227,-6.422 8.719,1.542 0.105,1.856 -4.416,5.618 -5.712,6.907 -2.362,2.339 -5.011,2.175 -7.669,3.738 -5.716,3.358 0.268,10.619 0.718,14.625 0.262,2.374 -1.168,5.282 -1.336,7.729 -0.246,3.651 0,9.556 -0.028,13.17 -0.047,8.453 -35.642,24.625 -53.705,36.988 -4.922,3.371 -12.881,11.471 -19.274,6.987 -2.33,-1.622 -3.994,-2.874 -6.398,-4.528 -4.16,-2.864 -6.047,-0.72 -6.727,-0.822 -0.141,-0.527 1.504,-10.51 -0.9,-11.56" />
	<path id="tj" d="M 1282.952,-12.59 c 1.317,-2.508 -0.08,-6.718 4.669,-6.43 3.492,0.216 6.675,1.468 10.49,1.334 2.62,-0.096 3.405,-2.178 2.888,-4.361 -0.188,-0.823 -0.31,-1.726 0.731,-2.014 2.419,-0.661 -0.155,-2.963 2.446,-0.586 -1.087,-0.74 -1.894,-1.896 -2.095,-3.216 0.771,-0.002 1.505,0.052 2.259,0.159 -1.122,-2.369 -4.045,0.169 -5.791,-1.72 2.967,-3.127 7.502,0.445 10.92,-0.966 -1.625,-1.275 0,-2.131 -1.135,-3.961 -0.975,-1.575 -2.606,-5.63 -0.136,-6.727 2.602,-1.153 4.723,2.205 6.677,1.674 3.15,-0.849 7.086,-3.954 8.59,-6.788 1.786,1.381 2.986,3.396 4.726,4.833 2.182,1.805 1.268,2.916 -1.066,4.634 -3.15,2.332 -2.21,1.802 0.365,3.548 1.123,0.767 1.828,2.543 3.223,2.895 1.617,0.403 3.3,-0.452 4.88,-0.524 -1.411,1.512 -4.599,5.526 -6.675,5.667 2.327,-2.034 -6.124,-5.143 -8.022,-5.309 -4.605,-0.392 -7.306,1.858 -7.559,5.787 -3.427,-3.638 -1.688,5.145 -0.683,6.606 1.357,1.997 4.374,-0.147 6.012,-0.295 2.921,-0.268 5.112,1.165 8.175,-0.685 0.057,0.591 0.099,1.177 0.155,1.768 1.547,-0.584 3.377,-1.362 5.039,-0.887 1.894,0.532 2.292,2.566 3.896,3.338 2.362,1.127 7.127,-2.369 9.183,-3.534 2.311,-1.312 1.688,1.179 2.751,1.86 0.971,0.258 1.932,0.432 2.926,0.514 0.436,0.586 0.759,1.232 0.961,1.927 3.079,2.257 5.652,-0.604 8.84,3.216 0.619,-5.71 10.069,-3.49 13.726,-3.53 1.872,-0.019 5.728,-2.985 7.186,-1.467 0.586,1.272 0.197,3.251 1.167,4.683 1.322,1.94 3.671,3.385 4.277,4.979 -3.578,0.021 0.134,5.074 1.006,6.178 1.272,1.596 2.439,1.401 4.463,0.318 3.52,-1.889 4.298,-0.956 5.739,-0.635 4.423,0.996 8.304,1.572 7.559,7.423 -0.094,0.817 0.281,2.798 1.905,4.132 1.821,1.502 2.3,3.986 2.68,4.807 0.675,1.493 -0.401,2.82 0.387,3.783 1.139,1.39 2.481,1.326 3.276,3.122 0.661,1.458 0.07,3.358 -1.659,3.942 -0.296,0.191 -2.258,-1.875 -3.207,-2.145 -1.301,-0.361 -6.074,-2.042 -7.375,-1.088 -2.719,1.964 -7.024,4.05 -9.661,2.946 4.19,-4.659 -6.408,-4.847 -8.909,-2.829 -2.277,1.838 -4.05,3.197 -5.273,6.057 -1.293,3.044 -5.716,0.973 -7.896,3.138 -13.233,13.177 -14.21,-7.195 -13.81,-16.148 0.274,-6.044 -3.017,-1.115 -5.414,-3.298 -0.961,-0.871 -0.147,-4.305 -0.479,-5.547 -0.527,-2.021 -4.577,-4.359 -6.061,-4.322 -6.651,0.176 -7.249,6.651 -9.928,9.572 -1.477,1.609 1.12,3.159 1.711,4.354 1.572,3.091 -1.51,3.975 -4.306,3.117 -2.74,-0.825 -5.667,-0.9 -7.226,0.356 -2.396,1.934 -0.228,3.276 -0.169,5.095 0.251,6.75 -5.479,1.749 -6.077,0.314 -0.324,-0.776 -1.786,-1.875 -2.109,-1.257 -1.646,3.122 -2.478,0.842 -2.961,1.145 -0.871,0.534 -1.969,1.279 -2.58,1.579 -1.336,0.659 -3.74,0.891 -3.86,3.333 -2.062,-0.479 -2.625,1.852 -4.704,0.417 -3.262,-2.259 -5.262,-8.463 -3.062,-12.29 2.796,-4.856 7.612,-9.395 1.645,-13.605 -4.641,-3.274 -0.332,-12.549 -6.688,-12.68 -1.819,-0.038 -4.224,0.34 -5.084,-1.664 -1.158,-2.7 -4.418,-1.303 -5.869,-4.042" />
	<path id="tm" d="M 1039.136,-59.681 c 6.961,-11.323 19.903,-13.245 31.575,-7.796 5.779,2.705 8.545,7.728 12.6,12.028 5.578,5.911 10.795,3.713 18.405,4.308 3.305,0.254 6.3,0.385 9.767,0.509 3.482,0.12 1.483,-2.841 1.102,-3.499 -4.575,-7.875 -2.883,-8.895 0.9,-12.804 2.906,-2.995 8.791,1.244 8.85,-5.067 0.061,-5.583 7.135,1.261 9.037,1.711 -0.722,-0.795 -6.389,-5.789 -6.469,-6.099 -0.25,-1.212 3.188,0.912 5.695,-1.95 1.125,-1.272 3.155,0.289 4.271,1.479 1.612,1.758 3.467,1.807 6.019,2.634 1.992,0.643 1.646,3.057 3.788,3.638 1.954,0.527 4.068,-0.012 6.077,0.062 2.742,0.096 5.064,1.659 4.83,4.396 -0.288,3.293 3.197,2.752 4.28,5.484 -1.468,-0.234 -2.198,0.104 -1.327,1.465 1.289,2.014 1.23,2.161 1.036,4.39 -0.323,3.654 8.476,4.726 10.721,4.521 2.721,-0.251 4.833,0.727 7.42,1.291 3.352,0.727 1.833,-2.292 4.09,-2.257 6.068,0.087 9.443,6.293 11.811,10.706 3.489,3.989 6.372,8.208 8.475,12.722 2.524,4.955 10.632,8.037 15.251,10.625 5.782,3.243 14.384,10.12 17.557,10.549 3.226,0.436 9.331,4.572 15.371,8.154 4.641,2.746 7.579,6.098 13.303,5.943 2.278,-0.146 5.14,1.021 7.833,2.611 2.489,1.462 5.719,1.523 5.555,2.118 1.202,1.425 -0.197,2.775 -0.075,4.24 0.209,2.393 0.389,6.452 2.022,7.9 -7.052,2.267 -9.802,-2.449 -11.655,-3.047 -4.013,-1.294 -3.787,2.051 -3.755,2.864 0.104,2.693 -1.845,3.147 -3.82,3.099 -2.016,-0.057 -4.537,-0.502 -6.307,0.521 -2.236,1.281 -2.163,3.876 -2.327,6.154 -0.239,3.221 0.412,4.182 -0.075,7.505 -0.398,2.681 -1.275,4.132 -3.276,5.396 -5.185,3.262 -11.855,7.425 -18.53,6.482 0.474,1.317 1.43,2.424 2.569,3.216 -2.551,1.438 0.827,2.93 -3.736,5.962 -2.397,3.422 -7.706,1.477 -9.432,4.646 -0.881,-2.627 -2.726,-4.894 -5.592,-5.384 -4.235,-0.717 -3.389,1.083 -5.911,-0.355 -1.01,-0.584 -4.723,-3.788 -6.3,-3.05 -0.604,-1.038 -1.123,-4.167 -2.193,-5.657 -1.562,-2.611 -1.702,-0.226 -0.926,-3.371 0.536,-2.175 -1.423,-6.66 -1.821,-9.074 -0.469,-2.824 -2.775,-2.633 -5.143,-2.516 -2.376,0.125 -5.17,0.894 -7.523,0.312 -3.164,-0.776 -4.823,-5.054 -7.232,-6.947 -2.911,-2.285 -7.65,-1.678 -9.979,-4.927 -2.176,-3.028 -3.146,-4.837 -6.867,-6.265 -3.82,-1.463 -6.84,-0.795 -10.777,-1.026 -3.426,-0.204 -5.521,-2.988 -8.648,-3.973 -2.91,-0.919 -8.573,-0.434 -10.026,-3.556 -1.271,-2.73 -2.435,-4.045 -5.372,-3.363 -1.34,0.312 -14.273,-2.597 -11.113,2.576 -3.919,0.857 -7.761,-1.254 -11.672,-0.43 -4.59,0.973 -7.575,3.926 -10.742,7.09 -1.432,1.438 0.045,3.284 -1.195,4.819 -0.733,0.926 -2.078,1.413 -3.149,1.776 -2.444,0.822 -6.725,2.074 -9.073,0.33 -1.842,-1.385 -2.391,-5.512 -2.922,-7.551 -1.156,-4.52 -0.828,-9.164 -1.901,-13.707 -0.658,-2.781 1.702,-6.817 -0.586,-8.927 -1.298,-1.219 -4.274,-2.022 -3.942,-4.292 0,3.092 -1.936,-0.769 -3.337,-2.024 -1.468,-1.319 -4.359,-3.34 -5.325,-0.385 -1.936,-2.344 -1.674,-5.993 0.973,-7.716 -3.387,3.263 4.306,2.176 5.623,2.571 -1.388,0.033 -2.062,-2.173 -2.358,-2.067 -1.72,0.626 -1.31,-2.622 -1.35,-3.569 -0.174,-4.723 -7.073,-1.83 -9.956,-3.363 2.062,3.34 -1.59,0.71 -2.265,-0.129 -0.938,-1.186 -1.254,-2.735 -1.35,-4.209 -0.216,-3.179 0.628,-6.272 0.693,-9.437 0.033,-1.356 0.525,-3.344 0.052,-4.624 -0.314,-0.829 -2.789,-3.438 -1.786,-3.077 0.251,0.089 -0.173,-0.722 -0.028,-0.562 0.797,0.206 1.843,4.242 4.027,4.314 -2.035,0.066 -0.047,3.228 2.367,0.828 -0.406,1.02 0.089,2.198 1.743,-0.406 0.44,1.91 2.901,3.696 3.097,-1.263 1.01,0.295 2.172,5.269 3.358,5.568 1.102,0.281 5.714,-1.244 4.5,-2.024 0.722,0.189 2.672,-0.392 2.901,-0.354 0.365,0.115 -1.619,1.875 2.518,1.108 0.37,0.239 -0.073,-0.375 -0.375,-0.246 -0.075,-0.105 0.295,-0.133 0.613,-0.414 -2.47,-0.05 -1.38,-0.809 -3.328,-3.16 0.753,-1.547 3.973,-0.534 3.281,1.109 3.39,0.977 5.473,-2.642 2.785,-4.758 l 1.34,0.429 c -1.068,-3.886 -12.305,-6.525 -13.04,-9.415 -0.378,-1.523 -4.036,-10.646 -6.108,-11.351 -6.52,-2.218 -12.651,4.055 -14.113,5.024 -0.802,0.53 -0.488,4.022 0.258,3.945 1.209,-2.975 1.809,2.111 1.617,4.314 -0.059,0.579 3.159,7.385 2.011,6.45 -0.651,-1.94 -1.885,-3.589 -3.361,-4.917 -1.875,-1.688 -2.138,-4.137 -4.443,-5.518" />
	<path id="tr" d="M 629.111,-40.392 c 1.674,-0.797 3.966,-3.075 4.472,-4.882 0.781,-2.824 -1.387,-4.938 2.522,-6.708 2.14,-0.968 1.366,-0.979 0.82,-3.226 -0.314,-1.316 -0.844,-2.639 -2.265,-3.103 -5.123,-1.674 1.195,-2.479 0.91,-4.535 -0.075,-0.572 5.486,-2.161 6.387,-2.456 2.95,-0.966 4.699,-1.955 6.832,0.478 2.013,2.271 3.121,0.818 5.657,0.562 1.182,-0.114 2.573,0.007 3.53,0.802 1.626,1.354 -0.82,1.823 0.347,3.31 4.289,5.536 9.323,7.94 16.144,9.991 2.635,0.79 0.44,4.634 -1.182,5.238 -3.121,1.158 -7.673,-1.87 -10.852,-2.051 -1.574,-0.092 -2.531,1.001 -3.82,1.666 -1.596,0.82 -3.27,-0.598 -5.098,-0.049 -2.222,0.668 -3.136,3.052 -4.661,4.721 -2.479,2.699 -5.822,3.461 -8.677,5.547 -2.426,1.768 -4.76,6.699 -7.393,7.716 -0.806,-3.126 0.523,-6.382 3.617,-7.479 0.541,-0.199 6.469,-1.985 4.514,-3.586 -3.132,-2.612 -10.266,4.365 -11.804,-1.956 m 2.096,24.267 c 0.22,-1.664 0.429,-9.895 1.659,-10.363 3.052,-1.163 4.029,-5.583 7.179,-7.158 1.681,-0.834 3.837,0.645 5.394,-0.45 1.954,-1.368 2.793,-0.328 4.514,0.698 2.461,1.477 10.406,0.849 5.362,-2.175 1.592,-0.656 3.335,-0.562 4.98,-0.161 -0.827,0.295 -1.216,0.822 -1.195,1.567 0.942,1.315 5.717,0.539 6.94,0.427 3.74,-0.342 9.133,1.842 12.27,-0.867 -1.498,-1.463 -3.425,-0.178 -5.004,-1.443 2.022,-5.145 11.269,-3.207 15.449,-4.177 -3.609,-1.774 -8.772,-0.284 -11.781,-3.387 -3.387,-3.48 0.021,-6.373 3.672,-6.026 3.984,0.373 7.985,2.234 12.057,1.351 5.421,-1.182 9.825,1.776 15.356,1.23 2.552,-0.253 2.932,-1.563 3.874,-3.558 1.048,-2.199 4.943,-3.162 6.936,-4.322 5.732,-3.358 10.284,-6.307 16.76,-8.062 6.757,-1.828 11.939,-0.851 18.804,-0.851 2.769,0 5.69,1.137 8.438,0.323 1.271,-0.38 1.692,-1.892 2.909,-2.25 1.239,-0.368 2.322,0.373 3.527,0.482 -2.044,2.473 1.45,5.832 3.687,6.512 1.704,0.518 3.452,0.941 5.238,0.705 1.947,-0.251 3.614,-2.451 3.614,0.34 0.442,-4.144 3.107,0.896 3.506,2.079 0.516,1.57 4.795,6.869 6.479,5.069 2.212,-2.379 4.574,-1.856 6.968,0.052 2.908,2.325 6.471,2.742 9.717,4.366 1.821,0.921 2.138,-2.854 4.647,-0.099 2.021,2.215 5.93,2.161 8.698,2.438 3.837,0.387 7.776,-2.271 11.627,-2.648 3.281,-0.328 5.104,-0.759 8.255,0.375 4.418,1.58 7.701,2.66 12.229,0.527 5.466,-2.555 10.456,-5.468 15.11,-9.223 1.873,-1.5 3.6,1.041 5.478,1.083 1.157,0.025 1.063,-1.559 2.414,-1.284 0.872,0.171 1.743,0.375 2.625,0.551 1.274,0.26 4.875,1.685 5.648,-0.026 0.951,-2.095 5.493,-3.836 4.097,-0.687 1.43,-0.271 2.686,0.656 3.713,1.51 0.733,0.673 1.504,1.301 2.306,1.889 1.294,0.162 1.585,0.76 0.886,1.8 0.596,1.801 3.028,0.047 4.022,1.52 0.646,0.956 1.06,3.797 2.016,4.567 3.052,2.464 5.526,4.915 3.787,7.428 -1.72,2.475 2.921,6.164 0.497,7.81 3.909,1.973 5.911,1.523 10.001,1.678 3.513,0.127 8.435,4.781 9.738,7.805 -1.894,-1.575 -4.814,-3.849 -5.616,0 -0.253,1.186 0.057,2.436 -0.3,3.616 -0.478,1.535 -4.528,0.72 -5.808,1.207 0.951,1.111 2.817,3.973 3.192,5.372 0.606,2.325 1.634,3.537 2.466,5.695 1.209,3.169 0.107,7.807 4.157,9.183 -1.383,1.296 -2.177,3.896 -2.625,5.672 -0.86,3.569 2.836,3.047 4.721,4.776 1.875,1.73 1.509,4.02 2.109,6.289 0.3,1.122 2.311,1.633 3.079,2.322 0.872,0.775 0.104,2.608 0.582,3.586 -3.746,-2.637 -5.293,3.924 -7.426,3.216 -2.774,-0.917 -0.52,-4.58 -2.545,-5.944 -1.013,-0.68 -2.705,-0.618 -3.638,0.219 -1.664,1.5 -4.11,1.146 -6.07,0.531 -3.201,-1.005 -5.667,-2.06 -9.042,-2.013 -2.404,0.037 -3.909,-0.636 -5.175,1.477 -1.519,2.557 -4.557,4.849 -5.597,1.038 -0.91,-3.318 -5.101,0.68 -6.934,1.275 -4.725,1.523 -8.662,1.477 -13.443,0.848 -8.592,-1.134 -16.018,7.512 -24.717,8.117 -3.474,0.241 -9.736,1.099 -12.647,-1.109 -3.188,-2.404 -5.175,-3.789 -9.099,-1.879 -4.199,2.034 -13.321,6.836 -16.929,2.362 -1.816,-2.243 -5.65,-3.023 -6.213,0.511 -0.537,3.474 0.673,5.904 2.156,8.878 -1.58,0.087 -3.239,0.537 -4.828,0.159 -0.256,1.374 0.675,2.829 0.181,4.18 -0.561,1.601 -2.693,1.94 -3.209,3.693 -1.209,-0.811 -2.428,-1.725 -3.867,-2.088 1.396,-1.801 -0.521,-4.14 -1.599,-5.489 -2.029,-2.515 0.169,-3.994 2.265,-5.812 2.151,-1.87 3.529,-3.188 1.434,-6.015 -0.82,-1.127 -2.592,-2.523 -3.782,-0.977 -1.659,2.14 -3.323,1.8 -5.391,3.349 3.422,-0.349 -0.082,3.097 -2.625,2.628 -3.15,-0.577 -5.948,-2.431 -8.777,-3.842 -6.701,-3.365 -10.195,6.509 -13.353,10.533 -0.479,-0.535 -0.963,-1.074 -1.439,-1.604 -1.223,1.271 -2.02,3.527 -3.975,2.782 -1.709,-0.645 -6.521,0.539 -8.135,1.348 -2.926,1.455 -6.35,1.237 -9.19,-0.019 -4.388,-1.932 -5.941,-6.781 -10.118,-8.812 -4.57,-2.236 -9.189,-4.793 -14.224,-5.691 -2.637,-0.466 -8.044,-1.537 -8.044,2.672 0,2.419 0.443,6.816 -1.322,8.747 -0.975,1.05 -2.242,-0.899 -3.156,-1.02 -2.328,-0.321 -4.732,2.44 -7.039,2.819 -2.657,0.45 -6.693,-1.266 -8.887,-2.669 -1.674,-1.064 -1.744,-4.559 -4.022,-4.662 1.772,-2.498 -2.355,-5.212 -2.876,-1.927 -1.729,-1.504 -6.082,-2.066 -6.609,-4.661 -0.407,1.877 -4.929,4.964 -6.426,6.105 0.522,-1.123 0.154,-1.819 -1.125,-2.091 1.277,-0.27 2.066,-1.279 2.074,-2.571 -1.632,1.366 -9.303,3.007 -11.405,2.412 1.674,-2.044 4.788,-2.171 7.2,-2.104 2.433,0.062 2.175,0.705 3.171,-1.177 0.696,-1.308 2.194,-1.903 3.136,-2.986 -2.967,-1.324 -13.146,-1.497 -15.581,0.966 -3.673,-4.312 3.312,-2.034 3.839,-3.15 0.437,-0.926 0.373,-2.222 -0.147,-3.101 -1.242,-2.058 -2.608,0.804 -1.927,-2.431 -3.536,4.533 -3.283,-4.805 -6.581,-4.656 2.285,-1.247 4.901,-2.445 2.939,-5.553 -1.428,-2.238 -5.471,-1.08 -6.427,-2.747 -1.006,-1.725 -2.032,-4.132 -3.537,-1.122 -0.675,1.338 -5.435,-2.258 -5.523,-3.443 4.793,1.146 0.658,-3.926 0.824,-5.901 0.141,-1.639 2.719,-0.443 3.207,0.36 1.017,1.664 0.677,4.397 2.24,5.705 -0.342,-3.564 5.203,0.891 6.745,-2.732 -3.192,-0.396 -4.495,-1.948 -6.427,-4.341 1.676,-0.924 2.531,-2.946 4.505,-3.378 -0.857,-2.608 -3.558,0.097 -3.323,-2.852 0.244,-2.935 -1.299,-3.312 -3.44,-5.185 1.43,-1.634 3.077,-3.073 4.359,-4.819 -4.599,-2.345 -8.907,2.467 -13.524,0.96" />
</g>
<g id="multi-2"
	style="fill:#cccccc;stroke:#ffffff;stroke-width:1.5px"
	transform="translate(-8.3571298,-21.024686)">
	<path id="az-1" d="M 933.09,-30.252 c 4.721,-3.616 7.584,-3.04 11.803,0.567 2.658,2.278 4.692,0.975 7.627,1.706 2.479,0.609 3.417,2.262 5.564,1.19 4.785,-2.386 -3.837,-6.839 -4.711,-7.331 -2.114,-1.2 -2.939,-2.906 -2.809,-3.785 0.141,-0.916 3.708,-3.012 2.062,-4.514 1.355,-0.392 7.751,2.61 9.713,5.177 1.308,1.728 3.984,1.88 4.662,3.244 0.953,1.922 1.549,3.773 3.645,4.463 1.875,0.616 3.977,1.186 5.938,1.141 1.793,-0.042 2.78,-2.547 3.539,-4.043 0.378,-0.715 7.563,-6.309 5.991,-8.315 3.44,1.12 7.092,5.183 8.98,8.049 2.7,4.108 4.937,7.774 8.335,11.399 0.529,0.204 1.078,0.418 1.599,0.643 0.056,0.588 0.098,1.179 0.154,1.77 1.557,1.718 3.159,2.518 5.494,2.702 5.095,0.403 7.738,1.927 9.773,6.619 -1.828,-2.543 -6.98,-3.633 -9.633,-1.908 -3.795,2.476 -3.924,4.219 -4.664,8.354 -0.678,3.717 -0.043,6.211 0.745,9.614 0.267,1.211 -1.515,2.475 -1.636,3.911 -0.197,2.178 0.764,3.855 -1.852,3.335 2.728,-2.57 -2.789,-4.021 -2.223,-1.087 0.802,4.113 -0.909,8.156 0.549,12.492 -1.186,0.037 -3.159,0.206 -4.207,-0.525 -3.822,-2.63 -10.575,-6.478 -10.146,-8.777 0.221,-1.181 3.073,-1.113 3.226,-2.034 0.286,-1.938 -4.247,-5.486 0.595,-7.301 -4.246,-4.882 -8.001,-8.187 -12.347,-3.6 -4.261,4.485 -6.685,4.052 -7.256,5.681 -3.476,5.166 -5.302,5.503 -7.847,7.108 -1.018,-1.286 -2.546,-5.945 0.276,-6.295 -0.769,-0.928 -4.271,-2.501 -3.651,-4.068 0.262,-0.678 1.701,-1.069 0.628,-1.89 -0.844,-0.645 -2.288,-1.31 -3.221,-1.099 -3.412,0.792 -7.997,-5.241 -11.935,-7.566 1.838,-0.886 4.453,-0.178 5.469,-2.438 1.07,-2.395 -2.023,-3.074 -3.631,-3.881 -2.627,-1.314 -10.219,-7.026 -4.073,-8.953 -1.451,-3.975 -6.047,-4.01 -9.015,-6.268 4.514,0.715 -1.137,-2.528 -1.51,-3.487" />
	<path id="az-2" d="M 933.85,0.397 c 2.582,-0.561 6.914,-1.8 6.602,2.412 1.91,-1.116 3.223,1.544 5.332,0.886 1.083,-0.338 4.145,-1.085 4.974,0.103 1.726,2.457 -0.604,2.949 2.812,4.655 1.423,0.708 3.108,6.501 4.425,7.997 -9.539,-0.551 -9.698,-1.552 -14.18,-5.213 -3.712,-3.049 -8.039,-6.265 -9.965,-10.84" />
	<path id="cy-1" d="M 744.842,91.049 c -0.223,-0.591 -0.429,-1.181 -0.658,-1.77 2.203,2.166 5.447,-1.954 7.94,-1.781 3.858,0.261 0.973,-3.618 4.559,-3.532 3.827,0.094 7.259,0.783 11.116,-0.258 4.332,-1.164 8.194,-5.669 12.741,-5.679 -2.888,1.81 -5.461,6.042 -8.64,7.043 -3.489,1.095 0,4.435 1.388,5.977 -1.49,0.183 -4.875,-0.112 -6.028,0.917 -1.27,1.146 -1.703,2.777 -3.445,3.377 -1.523,0.527 -7.537,1.172 -6.6,3.902 -5.039,-2.545 -10.008,-1.788 -12.373,-8.196" />
	<path id="lb-1" d="M 792.901,127.852 c 3.549,-4.134 3.432,-11.604 6.448,-16.256 1.49,-2.307 -0.261,-5.416 1.45,-7.639 1.336,-1.725 4.997,-3.64 3.823,-6.32 1.371,0.29 3.459,0.876 4.781,0.089 3.03,-1.81 0.886,1.634 1.336,2.672 -0.059,-0.141 1.997,0.63 2.205,0.834 1.535,1.47 0.671,1.146 1.828,3.265 2.464,4.512 -5.409,5.236 -2.278,9.05 -3.188,-0.959 -8.625,1.272 -4.818,4.818 -1.423,0.328 -6.225,4.987 -6.432,6.432 -0.355,-0.19 -0.613,-0.455 -0.812,-0.809 -0.523,1.038 -0.547,2.271 -1.123,3.33 -1.186,2.25 -4.664,-0.874 -6.408,0.534" />
	<path id="so" d="M 914.734,722.216 c 0,-3.143 -0.806,-7.48 0.549,-10.428 1.284,-2.799 3.923,-4.957 5.69,-7.48 3.534,-5.041 6.623,-14.062 11.99,-17.305 4.901,-2.967 10.646,-1.047 14.926,-5.66 4.879,-5.238 9.501,-8.654 16.877,-9.725 5.52,-0.793 15.218,3.129 19.033,-1.926 l 48.413,-57.234 c -5.853,0 -11.925,0.984 -17.679,-0.5 -6.525,-1.672 -12.748,-4.816 -19.055,-7.15 -6.509,-2.43 -12.969,-4.928 -19.446,-7.396 -5.995,-2.277 -11.273,-3.854 -15.877,-8.473 -1.542,-1.551 -2.027,-2.363 -4.177,-2.926 -2.17,-0.57 -3.014,-3.951 -4.035,-5.736 -1.721,-3.029 -2.869,-5.475 -5.316,-8.146 -2.913,-3.195 -6.33,-7.273 -5.008,-12.01 1.445,-5.201 6.012,-9.773 8.031,-14.893 5.358,2.988 8.325,10.133 11.981,14.762 4.582,5.773 11.56,7.385 18.647,5.043 2.723,-0.891 6.227,-3.309 8.535,-5.025 4.104,-3.025 5.255,-2.51 10.289,-1.682 5.191,0.848 7.543,1.947 12.392,-1.09 2.464,-1.535 8.084,-7.246 11.25,-6.117 3.487,1.236 5.886,1.395 9.633,0.102 2.257,-0.779 4.399,-1.916 6.725,-2.439 2.686,-0.598 4.481,0.568 7.04,0.826 4.191,0.418 7.416,-2.068 11.025,-3.535 3.783,-1.549 8.076,-0.857 11.888,-2.799 3.173,-1.607 3.497,-5.752 6.196,-7.08 2.621,-1.287 11.054,0.949 10.018,4.723 -1.35,4.885 -2.255,7.871 -1.354,13.043 0.623,3.613 1.577,8.781 -1.589,11.559 2.1,0.789 3.829,0.297 3.377,-1.926 1.041,0.682 2.178,1.168 3.392,1.434 -0.691,3.475 -8.55,-1.277 -8.588,4.811 -0.021,4.963 0.401,10.033 -0.975,14.906 -1.182,4.154 -3.675,7.34 -6.035,10.828 -2.745,4.078 -2.421,10.111 -5.777,14.027 -1.299,1.525 -3.099,1.912 -3.999,3.924 -0.899,1.996 -0.107,4.254 -0.853,6.369 -1.726,4.824 -5.175,8.648 -7.575,13.092 -3.199,5.922 -3.452,12.418 -5.943,18.527 -2.536,6.209 -6.502,11.701 -10.13,17.291 -3.534,5.428 -5.878,11.713 -9.921,16.783 -4.493,5.633 -8.993,11.242 -13.573,16.797 -9.211,11.176 -18.548,20.25 -30.764,28.107 -5.109,3.291 -10.187,6.697 -14.461,11.064 -4.81,4.914 -10.304,9.775 -14.648,15.078 -4.292,5.258 -8.812,10.377 -13.069,15.65 -2.062,2.572 -3.876,5.33 -5.892,7.945 -1.249,1.617 -4.979,7.449 -5.64,4.045 0,5.527 -3.609,10.852 -6.941,15.01 0.29,-4.326 -3.9,-7.902 -6.877,-12.197 -3.385,-4.883 -2.854,-8.254 -2.911,-13.916 -0.114,-17.132 0.211,-33.845 0.211,-50.952" />
	<path id="uz-1" d="M 1089.442,-100.696 l36.497,-10.681 c 3.313,-1.177 -4.421,10.455 0.31,16.689 0.194,0.239 0.623,3.844 1.477,5.447 0.867,1.601 2.123,1.385 2.512,1.371 -0.107,-1.997 2.196,-2.963 -0.318,-5.993 l -1.845,-7.882 -0.48,-7.324 c 0.671,-0.099 1.721,-2.705 3.577,-0.544 l 8.034,4.463 c 2.185,5.001 2.391,7.898 2.493,8.153 0.286,0.659 2.899,0.729 3.437,3.472 0.178,0.846 1.8,-4.739 2.334,-5.513 0.671,-0.956 -4.05,-4.699 -4.277,-4.43 1.505,-1.12 1.845,2.518 2.953,0.687 l 16.073,8.651 c 4.339,0.469 10.859,8.503 19.16,16.373 2.117,1.994 4.473,4.301 7.294,5.215 3.352,1.08 8.025,-1.083 11.354,-1.681 8.719,-1.572 18.021,2.772 26.461,0.656 2.177,-0.548 4.23,-4.028 6.675,-2.677 3.094,1.716 5.053,4.774 8.325,6.41 3.206,1.597 4.224,3.879 6.529,6.43 2.419,2.66 3.46,1.565 6.604,1.281 0.694,4.89 -0.084,14.82 4.505,18.028 2.273,1.58 5.315,-0.312 7.031,2.628 1.992,3.394 2.737,7.441 4.486,10.966 3.431,6.931 13.556,2.077 19.505,2.283 3.496,0.122 5.746,2.935 5.409,6.099 -0.516,4.729 6.839,4.301 9.693,5.158 -0.229,-1.805 -3.365,-4.53 -1.547,-6.323 1.683,-1.652 1.711,-3.614 4.148,-4.597 2.054,-0.824 0,-3.023 1.153,-4.316 1.467,-1.652 5.146,-3.539 7.068,-4.873 2.27,-1.589 5.082,-1.58 6.666,-4.076 0.745,-1.179 1.818,-3.722 3.361,-4.078 2.353,-0.546 2.438,1.078 4.668,-1.221 2.461,-2.541 4.739,-2.6 7.726,-1.043 -3.445,3.246 -12.736,7.854 -13.5,13.015 2.021,0.045 3.005,1.641 4.917,1.852 2.236,0.241 3.815,-1.94 5.049,1.135 2.083,5.18 7.847,1.654 10.922,4.567 0.412,-0.906 0.412,-1.816 0,-2.732 0.879,0.017 1.565,-0.335 2.024,-1.048 0.694,-1.312 -0.021,-3.082 -0.267,-4.415 1.427,2.578 3.606,2.95 5.774,5.449 2.175,2.533 5.518,1.068 5.665,5.158 3.963,-2.372 5.768,1.962 9.096,2.307 2.208,-0.122 4.088,-0.186 5.7,0.886 1.585,0.961 -2.282,2.325 -2.62,2.911 -1.589,2.644 -2.33,3.434 -6.576,1.612 -0.146,1.43 0.516,2.478 1.129,3.693 -0.961,-0.07 -10.284,0.49 -5.475,3.052 -1.336,0.01 -2.775,1.463 -4.195,1.167 -1.224,0.378 -0.74,-2.067 -2.25,-0.316 -1.205,0.542 -2.479,-1.354 -3.485,-1.688 -2.824,-0.939 -4.647,0.204 -6.509,1.071 -1.598,0.757 -1.912,0.375 -3.027,0.646 -3.703,0.877 -3.179,-2.329 -7.327,-4.172 -1.5,-0.66 3.223,-2.77 3.872,-4.289 0.38,-0.879 0.04,-1.947 -0.705,-2.381 -2.136,-1.247 -3.078,-3.656 -5.004,-5.145 -0.76,2.311 -7.627,8.506 -10.383,6.64 -1.854,-1.256 -5.325,-3.457 -6.117,0.612 -0.179,0.864 0.267,2.856 1.378,4.467 1.078,1.962 -0.08,3.115 1.308,4.19 -3.427,1.416 -7.955,-2.163 -10.922,0.973 1.744,1.401 4.5,-0.813 5.623,1.605 -0.746,-0.107 -1.498,-0.161 -2.25,-0.159 0.574,1.51 0.527,1.756 0.977,2.173 -0.119,0.07 0.075,0.665 -0.449,1.19 -0.413,0.427 -1.89,0.328 -1.688,1.725 0.352,2.461 0.851,4.426 -2.518,5.246 -2.721,0.66 -9.189,-1.662 -11.412,-1.438 -0.738,0.073 -2.257,0.523 -2.523,1.269 -1.526,4.102 -0.668,4.263 -1.52,5.027 0.82,2.036 3.062,1.795 4.374,2.54 2.592,1.47 0.539,2.464 3.979,3.045 1.768,0.298 2.848,-0.361 5.168,0.715 1.639,0.764 1.559,6.916 2.355,9.525 0.675,2.193 3.171,2.96 4.294,5.018 1.786,3.234 -0.788,6.881 -2.325,8.615 -2.573,2.916 -3.889,6.84 -0.773,12.422 -3.755,-3.004 -3.283,-2.273 -4.87,-2.118 -4.5,0.445 -5.022,0.886 -6.596,-0.785 -0.973,-1.048 -2.47,-1.723 -3.899,-2.061 -1.697,-0.403 -4.148,0.413 -5.827,0.12 -2.156,-1.859 -1.485,-4.086 -2.156,-5.904 -0.775,-2.119 2.476,-5.925 -1.055,-6.889 -2.227,-0.606 -3.966,-0.893 -5.962,-2.2 -3.418,-2.225 -5.923,-1.472 -9.664,-2.156 -3.911,-0.713 -7.038,-3.949 -10.258,-6.005 -3.073,-1.964 -6.375,-2.967 -9.296,-5.24 -2.774,-2.154 -6.124,-1.859 -8.853,-3.771 -3.424,-2.402 -7.07,-4.535 -10.53,-6.921 -5.346,-3.698 -16.664,-7.51 -19.406,-13.761 -2.578,-5.871 -7.125,-9.267 -10.013,-15.082 -1.574,-3.149 -3.487,-5.203 -6.764,-6.637 -0.872,-0.375 -2.391,-1.205 -3.377,-0.966 -1.393,0.347 -0.45,2.173 -2.096,2.329 -3.218,0.31 -5.674,-1.86 -10.371,-1.312 -2.794,0.324 -5.267,-0.827 -7.756,-1.973 -0.464,-0.214 -1.277,-0.825 -1.741,-1.681 -0.454,-0.854 0.335,-2.154 0.068,-3.164 -0.265,-1.018 -1.575,-2.55 -1.46,-3.241 0.109,-0.694 0.979,-0.551 1.683,-0.441 -1.013,-2.695 -4.247,-1.849 -4.428,-5.23 -0.181,-3.408 -2.304,-4.608 -5.642,-4.559 -1.584,0.025 -6.464,0.531 -7.099,-1.559 -0.973,-3.164 -4.235,-2.188 -6.499,-3.633 -1.078,-0.688 -3.77,-4.051 -5.27,-2.876 -1.837,1.43 -2.222,2.018 -4.882,1.699 -3.855,-0.462 5.027,5.32 5.347,6.511 -2.138,-0.506 -2.7,-1.786 -4.979,-2.908 -0.762,-0.375 -3.771,-2.285 -3.926,1.052 -0.33,6.849 -6.541,2.285 -9.27,5.581 -3.767,4.53 -3.936,5.142 -1.729,10.432 0.703,1.674 3.052,3.42 1.771,5.032 -0.841,1.062 -5.438,0.263 -6.67,0.22 -4.997,-0.191 -8.775,-0.414 -10.182,-0.295 l -15.178,-70.551" />
	<path id="xc-1" d="M 761.471,91.105 c -0.332,-0.358 0.76,-0.237 -0.178,-2.843 -0.042,-0.115 -4.678,-0.207 -5.705,0.225 -4.401,1.828 -4.017,-1.05 -3.459,-0.984 2.854,0.3 0.968,-3.619 4.554,-3.532 3.827,0.094 7.259,0.78 11.116,-0.26 4.332,-1.163 8.194,-5.67 12.741,-5.677 -2.869,1.807 -5.461,6.042 -8.64,7.041 -2.404,0.754 -1.495,2.57 -0.234,4.134 0.559,0.706 -0.886,0.335 -1.441,0.392 -0.176,0.023 -0.506,-0.546 -0.859,-0.506 -0.202,0.025 -0.31,0.566 -0.638,0.719 -3.984,1.847 -7.041,1.879 -7.257,1.291 z" />
	<path id="xn" d="M 971.645,8.587 c -3.474,5.17 -5.304,5.505 -7.85,7.11 -1.015,-1.286 -2.533,-5.946 0.274,-6.298 -0.767,-0.928 -4.271,-2.5 -3.649,-4.066 0.266,-0.677 1.702,-1.068 0.626,-1.891 -0.834,-0.645 -2.285,-1.309 -3.216,-1.098 -3.414,0.793 -7.999,-5.242 -11.937,-7.567 1.835,-0.886 4.446,-0.176 5.473,-2.436 0.375,-0.849 0.229,-1.481 -0.185,-1.982 0,0 2.25,1.04 2.559,1.085 0.303,0.042 2.745,-2.262 2.745,-2.262 0,0 -0.396,-1.256 0.164,-2.029 0.436,-0.596 1.563,-1.029 1.739,-1.013 0.436,0.047 2.578,3.914 2.925,4.219 0.352,0.302 4.607,3.26 4.607,3.606 0,0.35 0.909,3.176 2.332,3.917 1.441,0.735 2.349,2.259 2.349,2.259 0,0 -0.738,1.217 -0.387,2.956 0.356,1.734 1.955,3.171 2.039,3.606 0.095,0.437 -0.551,1.869 -0.608,1.884 z" />
	<path id="xs" d="M 1032.221,612.445 c -5.848,0 -11.922,0.998 -17.674,-0.486 -6.525,-1.672 -12.748,-4.816 -19.055,-7.164 -6.509,-2.418 -12.968,-4.936 -19.446,-7.383 -5.995,-2.277 -11.269,-3.867 -15.876,-8.48 -1.538,-1.547 -2.027,-2.361 -4.177,-2.924 -2.171,-0.584 -3.015,-3.951 -4.026,-5.738 -1.728,-3.023 -2.879,-5.471 -5.325,-8.143 -2.913,-3.191 -6.328,-7.27 -5.009,-12.008 1.446,-5.201 6.012,-9.773 8.032,-14.895 5.357,2.988 8.325,10.129 11.981,14.76 4.579,5.779 11.559,7.383 18.646,5.049 2.724,-0.893 6.228,-3.314 8.536,-5.027 4.102,-3.023 5.255,-2.508 10.289,-1.688 5.191,0.855 7.542,1.955 12.392,-1.082 2.463,-1.535 8.083,-7.246 11.25,-6.117 3.487,1.236 5.885,1.395 9.63,0.102 2.265,-0.779 4.401,-1.916 6.727,-2.439 0.797,-0.168 1.491,-0.197 2.175,-0.141 l 0.174,52.607 z" />
	<path id="ps-1" d="M 781.163,161.926 c 1.547,-1.531 2.986,-3.211 4.022,-5.145 1.914,1.216 -2.166,6.405 -3.066,7.34 -0.379,-0.665 -0.698,-1.471 -0.956,-2.195" />
	<path id="ps-2" d="M 792.104,145.212 c 0.816,-1.912 1.088,-7.282 4.364,-6.645 1.13,0.226 4.453,2.173 4.878,3.274 1.209,3.209 0.893,7.704 0.789,11.185 -0.074,2.391 -0.112,4.971 -1.373,5.562 l -4.676,2.185 c -2.215,1.04 -4.428,1.118 -3.49,-2.362 0.254,-0.924 3.535,-5.775 3.999,-5.616 -0.976,-0.335 -3.497,0.628 -4.078,-1.068 -1.032,-2.996 0.008,-5.256 -0.413,-6.515" />
</g>
<g id="multi-3"
	style="fill:#0cb325;stroke:#ffffff;stroke-width:1.5px"
	transform="translate(-8.3571298,-21.024686)">
	<path id="bh-1" d="M 1057.683,268.994 c -0.102,-0.409 -0.441,-0.852 -0.801,-1.321 -0.607,-0.792 -1.363,-1.777 -1.125,-3.023 0.01,-0.212 -0.2,-0.645 -0.402,-1.063 -0.37,-0.764 -0.877,-1.81 -0.056,-2.686 0.651,-0.696 1.264,-1.034 1.872,-1.034 0.388,0 0.947,0.142 1.411,0.818 1.265,1.841 1.056,7.029 0.528,8.398 l -0.855,2.221 z" />
	<path id="qa-1" d="M 1068.074,293.145 c -1.44,0 -2.539,-0.884 -3.36,-2.703 -1.345,-2.923 -2.039,-6.261 -2.711,-9.488 -0.153,-0.737 -0.305,-1.465 -0.462,-2.175 -0.856,-3.874 -0.286,-4.584 -0.071,-4.851 0.222,-0.275 0.534,-0.427 0.882,-0.427 0.035,0 0.07,0.002 0.105,0.005 -0.075,-0.939 -0.056,-1.884 0.259,-2.253 l 0.225,-0.264 0.414,-0.035 c 0.098,0 0.188,0.014 0.274,0.042 0.347,-3.353 1.427,-9.022 4.764,-9.022 1.111,0 2.261,0.644 3.515,1.967 0.379,0.4 0.88,0.779 1.411,1.179 1.353,1.021 2.886,2.177 2.9,4.178 0,1.172 -0.352,2.052 -0.691,2.903 -0.188,0.469 -0.364,0.912 -0.488,1.408 -0.162,0.638 0.063,1.52 0.281,2.373 0.136,0.534 0.276,1.085 0.327,1.601 0.031,0.337 0.189,0.484 0.635,0.818 0.414,0.312 0.931,0.7 1.166,1.435 0.706,2.149 0.092,4.06 -0.604,5.645 -0.323,0.737 -0.529,1.417 -0.728,2.074 -0.541,1.787 -1.051,3.475 -3.747,4.282 -0.483,0.145 -0.979,0.346 -1.457,0.54 -0.931,0.377 -1.894,0.768 -2.839,0.768 z" />
	<path id="kw-1" d="M 1011.648,187.965 c 0.314,0.698 -3.809,7.5 1.282,6.991 4.416,-0.436 -0.071,-5.496 -1.282,-6.991" />
	<path id="kw-2" d="M 986.41,204.84 c 7.158,-2.609 3.834,-17.105 11.304,-18.479 2.886,-0.532 6.987,-0.802 10.786,2.322 0.973,0.812 3.504,6.045 2.491,7.312 -2.123,-2.979 -5.146,2.074 -6.267,3.535 3.258,-0.432 6.886,0.832 7.711,4.363 0.973,4.287 4.261,8.107 5.699,12.438 -2.774,-1.589 -9.656,1.088 -12.375,-0.817 -2.113,-1.484 -2.371,-4.699 -3.211,-6.919 -1.107,-2.963 -11.807,-2.161 -16.138,-3.755" />
</g>
<g id="multi-4"
	style="fill:#cccccc;stroke:#ffffff;stroke-width:1.5px"
	transform="translate(-38.25883,-66.09919)">
	<path id="er-1" d="M 922.147,505.627 c 0.11,1.27 1.423,5.057 -0.827,3.217 0.979,2.84 5.893,2.582 8.21,2.412 -1.142,-2.461 -4.359,-0.082 -5.191,-2.617 -0.333,-0.977 -0.361,-4.118 -2.192,-3.012" />
	<path id="er-2" d="M 862.67,519.453 c 2.693,-2.418 2.539,-6.203 3.521,-9.4 1.046,-3.473 2.499,-6.854 3.755,-10.258 1.135,-3.137 -2.096,-16.158 2.92,-16.857 0.994,-0.141 4.734,0.611 5.335,-0.385 1.622,-2.713 0.375,-4.795 3.591,-5.814 2.599,-0.824 5.582,-2.848 8.282,-3.916 3.979,-1.578 4.125,-5.682 6.984,-8.33 4.997,9.973 8.658,19.568 11.114,30.453 0.574,2.596 0.532,5.16 1.725,7.605 1.275,2.65 2.492,4.752 3.015,7.666 0.37,1.982 2.854,2.145 3.394,4.246 0.511,1.949 0.907,5.273 2.623,6.604 2.153,-1.52 -1.364,-7.291 0.871,-7.658 2.183,-0.367 3.488,2.391 3.636,4.016 0.173,1.902 1.542,5.168 3.368,6.012 2.59,1.195 4.219,-2.322 6.862,0.633 2.177,2.434 2.439,4.232 5.96,4.723 4.068,0.555 5.625,3.682 7.791,6.912 2.095,3.115 3.909,6.285 7.176,8.346 1.543,0.973 2.897,2.16 4.2,3.432 0.647,0.639 3.797,4.963 2.227,1.068 2.151,1.379 2.147,4.426 2.824,6.582 0.591,1.871 2.679,1.363 3.896,2.633 1.174,1.23 5.829,9.922 7.577,5.562 1.758,1.652 2.618,2.412 1.617,3.621 -2.578,1.209 -4.636,2.869 -4.681,4.301 -0.147,4.967 -4.057,-2.143 -8.477,1.359 0.543,-1.277 -0.746,-5.217 -5.555,-8.516 -4.233,-6.375 -6.964,-10.807 -9.537,-11.492 -4.596,-1.234 -6.077,-6.906 -8.831,-10.705 -2.988,-4.115 -7.441,-4.314 -11.233,-7.234 -3.549,-2.736 -5.668,-0.467 -8.949,-1.449 -2.582,-0.766 -7.045,-3.186 -9.6,0.066 -0.059,-1.998 -4.078,-5.975 -3.197,-4.59 0.41,0.664 -2.873,4.254 -5.277,4.395 -1.58,0.092 -4.937,0.562 -6.572,-1.912 -2.995,-4.504 -3.975,-0.816 -7.481,-6.564 -1.336,5.17 -3.305,10.16 -5.29,15.1 -1.075,-1.531 -3.879,-7.242 -6.511,-5.836 -1.643,0.887 -1.435,2.531 -3.762,2.363 -6.375,-0.492 -6.236,-0.76 -7.903,3.23 -1.188,-5.682 -1.523,-14.342 -1.527,-19.611" />
	<path id="ir-1" d="M 1131.552,294.763 c 0.504,-0.261 1.04,-0.368 1.591,-0.324 -1.068,-0.663 -2.182,-0.769 -3.365,-0.325 0.605,0.212 1.184,0.433 1.774,0.649" />
	<path id="ir-2" d="M 1144.408,300.544 c 0.295,-1.336 -0.226,-1.448 -1.599,-0.323 0.525,0.11 1.064,0.216 1.599,0.323" />
	<path id="ir-3" d="M 1173.334,292.024 c -2.625,2.201 -4.445,6.015 -8.681,5.305 -0.375,3.961 5.625,-0.075 6.978,-0.68 1.422,-0.626 3.067,-0.134 4.492,-0.812 2.021,-0.949 2.358,-4.071 4.758,-4.294 -2.684,-2.628 -4.779,1.729 -7.547,0.481" />
	<path id="ir-4" d="M 952.83,51.741 c 4.448,-1.517 6.037,1.768 5.943,-5.255 -0.042,-3.052 2.623,-1.917 4.561,-0.506 1.887,1.392 2.928,3.611 4.655,5.177 1.664,1.517 3.571,2.742 5.231,4.259 3.407,3.108 4.889,4.838 9.792,5.595 3.042,0.467 7.341,0.795 10.308,-0.082 1.641,-0.487 7.155,-5.269 7.729,-6.802 0.649,-1.767 3.075,-2.149 4.421,-3.302 1.556,-1.329 2.896,-2.918 4.589,-4.086 4.423,-3.049 8.381,1.594 11.081,4.838 -5.911,2.222 2.096,7.184 -1.195,7.932 -6.112,1.392 0.221,4.982 2.822,6.606 1.855,1.144 3.501,2.916 5.47,3.823 0.802,0.363 3.206,-0.104 3.455,0.391 2.451,4.988 2.086,13.203 7.603,16.098 4.702,2.465 10.273,1.303 15.02,3.332 3.072,1.322 4.125,4.766 6.613,6.758 2.729,2.184 6.849,3.722 10.036,5.142 6.01,2.672 14.039,4.533 20.476,2.602 7.734,-2.32 17.456,-6.065 25.643,-4.786 -1.652,0.621 -3.41,0.432 -5.133,0.643 1.182,0.881 5.791,2.611 6.455,0.209 0.569,-2.103 -2.707,-7.88 -3.345,-10.031 3.822,0.759 6.717,0.687 10.321,-0.832 4.125,-1.739 1.285,-3.251 3.15,-6.11 1.847,-2.836 6.174,-5.646 9.265,-6.823 4.526,-1.708 8.899,0.912 13.428,-0.074 -1.575,-2.56 1.847,-2.811 3.815,-2.977 2.484,-0.211 5.327,0.695 7.748,0.447 3.46,-0.354 3.488,0.094 5.176,3.223 1.607,2.981 6.107,2.918 9.103,3.457 3.343,0.603 5.66,3.956 9.188,4.237 3.914,0.31 7.026,-0.342 10.861,1.09 3.773,1.406 4.989,2.925 7.045,6.101 2.096,3.232 6.825,2.775 9.8,4.77 2.627,1.772 3.484,5.039 6.159,6.676 3.035,1.842 10.716,-1.699 13.043,0.822 1.964,2.119 2.384,8.004 2.779,10.282 0.46,2.587 -1.636,1.643 0.394,3.403 1.266,1.087 2.442,5.704 2.628,7.34 0.312,2.574 -2.025,4.341 -1.559,7.088 0.638,3.74 1.924,11.756 -3.656,12.387 0.506,0.703 2.419,2.283 2.259,3.221 -0.265,1.492 -3.675,1.945 -4.326,3.893 -1.142,3.49 0.867,11.693 5.123,11.981 5.466,0.37 0.527,4.683 -0.313,7.42 -1.214,3.999 4.519,12.964 5.648,17.456 1.274,5.117 0.849,10.081 4.364,13.983 2.798,3.107 8.906,1.479 12.543,3.305 3.807,1.907 3.556,7.783 2.598,11.021 -0.994,3.325 -4.051,6.079 -5.733,9.067 -1.401,2.478 -4.907,8.101 -6.318,9.092 1.763,1.786 3.22,3.173 4.055,3.926 8.053,7.184 10.856,17.655 17.325,21.216 1.969,1.075 3.956,1.734 5.985,2.728 1.908,0.936 4.233,2.6 6.39,2.74 3.014,0.194 4.026,10.605 4.148,13.277 0.431,9.349 2.142,6.792 7.504,6.839 2.551,0.025 1.111,6.701 0.919,9.338 -0.365,5.336 -17.524,0.442 -14.771,7.656 -1.612,-0.36 -4.495,0.694 -5.367,1.927 -2.941,4.135 -2.559,10.999 -2.845,16.458 -0.08,1.514 0.436,4.763 -2.236,3.792 1.252,4.212 -7.931,0.45 -9.375,0 -1.626,-0.506 -5.367,-0.161 -5.796,-2.433 -0.598,-3.136 -4.24,-1.266 -2.646,0.183 -0.715,0.141 -8.892,-0.103 -9.56,-0.646 -2.628,-2.096 -7.694,-1.786 -10.604,-0.886 -2.478,0.759 -4.261,-0.605 -6.159,-1.965 -2.545,-1.805 -4.641,-0.707 -7.408,-1.445 -2.176,-0.598 -4.095,1.202 -6.301,0.288 -2.02,-0.842 -2.512,-3.727 -4.823,-1.123 0.614,-3.143 -6.105,-2.25 -7.989,-3.991 -3.931,-3.675 -5.084,-11.834 -5.984,-16.889 -1.12,-6.35 -6.848,-9.847 -13.099,-9.375 -2.841,0.225 -4.878,2.599 -7.535,3.37 -2.21,0.646 -5.037,1.083 -3.769,3.656 0.824,1.646 -4.941,0.914 -5.325,1.008 -2.869,0.693 -3.976,3.673 -6.434,4.898 -4.128,2.064 -7.905,-3.572 -11.911,-3.572 -4.922,0 -7.676,0.956 -10.728,-3.558 -1.519,-2.255 -4.896,-2.986 -7.204,-4.261 -3.005,-1.657 -5.921,-3.467 -9.052,-4.88 3.019,-2.864 -4.359,-5.531 -6.077,-6.314 -1.559,-0.707 -2.938,-2.098 -4.587,-2.493 -2.33,-0.556 -5.438,0.363 -7.366,-1.097 -4.277,-3.223 -5.328,-6.16 -8.159,-10.646 -1.345,-2.119 -0.427,-5.022 -2.56,-6.733 -1.443,-1.168 -3.735,-1.812 -3.74,-4.062 2.644,0.263 2.267,-2.062 0.295,-2.496 -1.298,-0.293 -4.589,-0.039 -3.258,-2.376 1.728,-3.023 -3.337,-6.335 -4.898,-7.915 -2.657,-2.677 -4.594,-5.524 -5.943,-9.014 -2.307,-5.975 -6.971,4.479 -9.506,0.909 -1.716,-2.396 -4.277,-0.694 -5.391,-2.958 -0.549,-1.083 -3.854,-1.662 -4.88,-3.307 1.669,-0.11 3.337,0.539 4.982,0 -0.539,-2.229 -3.154,-2.829 -4.982,-1.77 0.422,0.499 0.849,0.979 1.294,1.445 -4.781,-0.628 3.014,10.327 -5.316,6.917 0.562,1.669 -0.876,2.109 -2.165,1.542 -1.8,-0.792 -1.88,-2.869 -2.515,-4.47 -1.306,-3.312 -5.965,-3.579 -6.523,-7.676 -0.355,-2.602 0.83,-7.783 -2.845,-7.669 -5.804,0.179 -3.994,-7.77 -3.216,-11.714 1.05,-5.238 -1.552,-6.204 -4.607,-9.879 -3.103,-3.743 -2.513,-5.903 -7.575,-6.857 -3.858,-0.731 -6.396,-4.858 -9.462,-6.966 -1.666,-1.148 -3.614,-2.6 -5.754,-2.419 -3.569,0.296 -1.43,-1.725 -4.05,-2.726 5.726,-1.746 -5.538,-10.65 -7.366,-12.204 -1.324,-1.127 -2.489,-2.486 -3.8,-3.668 -1.936,-1.743 -0.164,-2.149 0.643,-4.326 0.722,-1.992 0.333,-2.958 -1.294,-4.23 -1.612,-1.269 -0.352,-3.139 -0.077,-4.671 1.033,0.637 2.165,0.961 3.377,0.97 -0.267,-1.427 -0.975,-2.747 -1.125,-4.2 -0.263,-2.5 2.503,-2.098 2.7,-3.953 0.291,-2.712 0.392,-1.943 2.667,-1.93 2.143,0.01 1.89,-1.936 1.177,-3.164 -1.202,-2.066 -4.113,-4.047 -3.38,-6.794 0.638,-2.37 4.261,-1.761 4.875,-4.388 -1.561,0.45 -2.669,-0.717 -4.181,-0.562 -1.856,0.188 -3.844,1.076 -5.635,0.077 -2.719,-1.505 -3.159,-3.703 -6.745,-2.892 2.461,-5.668 -6.713,-7.304 -6.352,-11.091 0.225,-2.208 0.042,-2.991 -2.044,-3.867 -0.534,-0.228 -3.799,-7.354 -3.562,-8.312 0.818,-3.414 -1.472,-2.051 -3.15,-4.38 -1.654,-2.309 -0.841,-6.155 -2.726,-6.966 -0.978,-0.422 -4.778,-1.607 -4.629,-3.139 0.221,-2.289 1.282,-5.453 3.028,-7.092 -4.81,-0.991 -2.604,-7.336 -4.748,-9.778 -1.203,-1.364 -0.807,-2.585 -1.57,-4.179 -0.387,-0.898 -2.304,-4.487 -3.447,-6.294" />
	<path id="ye-1" d="M 970.515,543.404 c 0.221,-0.746 0.258,-1.49 0.154,-2.25 -2.46,0.39 -1.466,1.373 -0.154,2.25" />
	<path id="ye-2" d="M 1133.647,577.472 c -0.087,-1.734 -2.235,-1.123 -3.223,-0.971 1.074,0.329 2.162,0.653 3.223,0.971" />
	<path id="ye-3" d="M 1157.42,574.255 c 3.762,-0.855 10.289,-0.451 12.226,-4.656 -2.26,-1.355 -5.245,-3.428 -8.027,-2.803 -1.319,0.303 -2.459,1.158 -3.874,1.027 -1.486,-0.141 -2.775,-1.449 -4.327,-1.168 -1.699,0.311 -3.211,3.607 -1.8,4.846 1.447,1.301 3.854,2.481 5.802,2.754" />
	<path id="ye-4" d="M 1143.451,489.81 c -5.414,-0.205 -2.353,-11.307 -7.723,-11.93 2.405,-3.832 -6.524,-15.701 -8.064,-19.893 l -6.263,-14.482 c -15.904,3.122 -31.884,6.55 -47.536,8.664 -13.059,4.027 -19.654,10.518 -22.607,17.592 -2.719,4.072 -4.172,14.35 -10.716,13.957 -4.443,-0.266 -3.961,-6.939 -8.24,-6.432 -5.391,0.641 -9.804,0.531 -15.263,-0.232 -3.092,-0.426 -6.281,-2.635 -9.318,-2.635 -3.371,0 -6.713,0.326 -10.06,0.637 -4.111,0.391 -7.575,2.234 -11.827,1.996 -2.324,-0.127 -3.206,-2.729 -5.597,-3.023 -2.29,-0.291 -4.045,1.252 -5.021,3.191 -1.035,2.109 -1.378,4.67 -0.975,6.98 0.246,1.5 2.349,2.99 1.217,4.527 -1.083,1.459 -1.941,2.953 -3.055,4.473 -0.588,0.83 -1.34,1.486 -2.24,1.965 -2.145,1.072 -1.048,1.881 -0.609,4.236 0.687,3.723 -0.705,5.451 -1.369,8.842 -0.616,3.141 2.021,5.877 1.721,9 -0.596,-0.535 -3.797,-0.619 -3.263,0.625 -0.101,-0.26 3.229,1.625 3.229,1.609 1.789,1.914 2.461,3.896 3.07,6.391 1.205,4.9 1.294,10.373 2.836,15.137 0.638,1.955 2.208,3.418 2.953,5.328 0.891,2.301 0.047,4.795 0,7.15 -0.094,4.662 5.541,8.578 4.011,13.309 2.051,0.154 3.445,-0.996 5.51,-0.17 2.222,0.885 3.741,1.615 6.19,1.133 5.022,-0.998 7.272,-4.514 12.522,-1.768 -0.274,-1.424 1.259,-2.873 1.765,-0.801 0.86,-0.957 1.371,-2.059 2.069,-3.123 1.108,-1.688 2.909,-1.645 4.393,-2.77 3.305,-2.488 3.675,-5.008 8.222,-6.057 4.244,-0.975 8.744,-1.158 13.076,-0.766 2.545,0.236 6.82,-2.686 9.372,-3.408 3.825,-1.078 5.702,-4.383 9.07,-6.236 1.022,-0.562 2.476,-1.857 3.591,-2.186 1.232,0.043 2.396,0.332 3.518,0.873 1.269,0.062 2.487,-0.092 3.691,-0.451 8.101,-1.301 9.922,-9.682 17.189,-13.262 3.377,-1.66 6.373,-2.074 9.979,-2.707 4.453,-0.781 8.149,-3.77 12.525,-4.811 3.052,-0.73 6.129,-1.307 9.089,-2.369 2.953,-1.068 4.001,-3.424 6.502,-4.697 2.069,-1.064 6.534,-0.924 7.174,-3.732 0.738,-3.264 -1.525,-6.23 -0.345,-9.549 2.384,-6.723 10.58,-6.455 15.589,-10.123" />
</g>
<g id="multi-5"
	style="fill:#0cb325;stroke:#ffffff;stroke-width:1.5px"
	transform="translate(-38.25883,-66.09919)">
	<path id="ae-1" d="M 1144.248,346.034 c 1.125,0.07 1.974,-0.361 2.564,-1.294 -1.443,-1.202 -3.295,-0.914 -4.158,0.812 0.525,0.161 1.063,0.311 1.594,0.482" />
	<path id="ae-2" d="M 1107.137,343.14 c 1.087,-0.717 1.519,-0.295 1.266,1.277 0.524,-0.494 1.071,-0.973 1.607,-1.439 1.041,1.526 0.122,3.718 1.292,5.141 1.127,1.378 3.78,1.055 5.317,0.97 2.016,-0.117 3.689,-0.436 5.241,-1.818 0.698,-0.628 1.509,-2.471 2.47,-2.682 1.031,-0.229 3.614,1.322 4.873,1.351 2.088,0.051 4.16,0.29 6.241,0.22 5.644,-0.206 9.539,2.397 15.077,-0.921 -0.509,-0.78 -1.038,-1.535 -1.601,-2.25 1.734,-0.663 1.505,1.432 2.883,1.277 2.009,-0.223 3.708,-2.642 4.525,-4.247 2.22,-4.366 2.506,-6.853 6.396,-10.106 3.787,-3.164 5.32,-8.866 8.918,-11.816 3.978,-3.268 6.345,-4.14 7.488,-9.509 2.883,0.141 1.636,4.324 1.659,6.089 0.047,3.333 3.666,1.643 4.102,5.342 0.437,3.717 2.965,8.578 0.057,11.463 -6.239,6.129 -4.233,1.842 -5.208,-0.797 -0.942,-2.566 -2.911,2.138 -2.615,3.72 0.22,1.2 -0.333,1.216 -0.141,2.503 0.201,1.378 1.097,3.432 1.11,5.046 0.059,4.5 4.565,2.478 2.759,5.473 -1.446,2.391 -6.162,0.296 -7.987,2.461 4.197,2.339 -2.027,13.317 -2.848,20.067 0.288,4.416 -1.962,5.421 -5.801,4.521 -4.728,-1.113 -9.633,-1.555 -14.442,-2.271 -5.022,-0.745 -10.068,-1.483 -15.119,-2.109 -3.708,-0.464 -8.171,0.268 -10.655,-3.037 -2.526,-3.35 -4.931,-6.75 -7.584,-10.022 -1.866,-2.282 -3.755,-4.528 -5.625,-6.797 -1.908,-2.291 -2.204,-4.673 -3.655,-7.1" />
	<path id="om-1" d="M 1231.201,422.532 c 1.5,-1.32 2.025,-3.092 2.738,-4.885 0.407,-0.539 0.886,-0.989 1.438,-1.378 0.614,-0.718 -0.951,-2.953 -1.125,-3.696 -0.82,3.488 -4.459,6.08 -3.051,9.959" />
	<path id="om-2" d="M 1179.128,308.579 c 0.46,-1.285 1.05,-2.524 1.756,-3.689 1.519,1.697 2.981,-0.611 2.257,-2.096 1.303,0.701 3.924,5.147 0.651,4.346 2.109,1.46 0.565,10.42 -1.758,10.003 -3.161,-0.553 1.113,-8.358 -2.906,-8.564" />
	<path id="om-3" d="M 1121.256,443.188 c 23.501,-5.4 38.211,-11.061 48.855,-16.843 4.353,-8.304 -0.33,4.768 1.746,-4.469 1.711,-7.555 2.881,-15.09 4.585,-22.289 1.19,-4.979 3.978,-11.236 1.083,-15.98 -2.067,-3.41 -6.272,-6.323 -7.575,-10.092 -1.641,-4.736 7.294,-21.045 2.901,-23.623 1.974,-2.346 5.854,-0.316 7.575,-2.566 1.875,-2.47 -1.144,-1.654 -1.765,-2.892 -1.644,-3.319 -2.951,-10.601 -0.743,-13.969 1.031,-1.57 3.134,0.841 2.798,2.086 -1.015,3.881 2.895,-0.323 3.525,-0.914 1.908,-1.828 1.887,-1.519 3.08,1.055 1.984,4.286 4.572,8.325 7.725,11.841 4.992,5.547 11.981,7.537 19.106,8.972 3.323,0.661 6.149,1.976 9.534,2.353 4.533,0.509 7.008,6.028 9.604,9.105 2.096,2.487 3.521,5.482 5.611,7.861 2.17,2.478 3.318,2.583 6.189,3.727 6.72,2.686 -0.884,12.232 -2.22,16.179 -2.531,7.444 -10.509,11.339 -12.675,19.322 -0.516,1.875 -1.204,7.331 -4.186,6.431 -2.365,-0.7 -1.898,-5.215 -4.925,-3.34 -3.606,2.188 -3.405,10.034 -4.338,13.254 -1.217,4.222 0.162,7.488 1.272,11.576 0.907,3.34 1.483,5.864 -2.573,5.99 -6.522,0.19 -13.694,2.109 -15.293,9.139 -0.633,2.758 -1.12,5.793 -2.869,8.131 -2.16,2.906 -6.461,2.742 -9.871,3.002 -4.125,0.309 -5.785,0.975 -8.208,4.24 -2.349,3.148 -0.827,3.754 -1.022,7.354 -0.154,2.865 -3.074,4.936 -5.386,6.064 -1.125,0.531 -2.227,1.266 -3.375,0.365 -1.964,-1.547 -3.571,-1.123 -6.021,-1.123 -7.053,0 -13.219,6.842 -20.323,6.641 -4.596,-0.127 -2.531,-11.406 -7.481,-11.939 2.096,-2.191 -3.019,-9.885 -4.059,-11.811 -3.633,-6.723 -7.945,-15.631 -10.327,-22.901" />
	<path id="sa-1" d="M 958.303,492.127 c -0.087,-1.812 -0.832,-3.5 -2.412,-4.5 -0.047,0.592 -0.089,1.182 -0.188,1.766 -2.096,0.078 -2.846,-2.131 -4.636,-2.734 1.748,2.899 6.235,2.841 7.236,5.468" />
	<path id="sa-2" d="M 969.088,495.107 c 0.223,-2.023 -1.02,-6.828 -2.84,-7.998 -0.94,-0.588 -5.44,-10.037 -5.178,-5.473 -0.417,-8.172 -6.075,-10.277 -10.575,-15.801 -1.72,-2.096 -4.125,-5.119 -4.912,-7.682 -1.034,-3.305 -2.901,-4.246 -4.585,-6.932 -0.979,-1.578 -0.147,-2.952 -1.284,-4.573 -0.825,-1.145 -2.175,-4.81 -2.714,-6.286 -0.516,-1.378 -0.818,-2.841 -1.453,-4.16 -0.6,-1.226 -1.842,-1.395 -2.442,-2.471 -0.567,-1.033 -0.019,-2.439 -0.811,-3.34 -0.802,-0.914 -2.109,-1.04 -2.975,-1.856 -2.177,-2.024 -4.711,-4.08 -6.638,-6.337 -2.322,-2.752 -5.076,-1.594 -7.708,-3.534 -4.374,-3.234 -7.282,-9.226 -10.031,-13.819 -1.604,-2.672 -1.14,-4.195 -1.275,-7.017 -0.149,-3.059 -2.353,-5.583 -2.587,-8.668 -0.296,-4.05 1.378,-8.086 0.566,-12.121 -0.375,-1.838 -1.373,-3.387 -2.353,-4.943 -0.525,-0.818 -3.668,-4.868 -0.104,-2.096 -0.792,-2.036 -2.552,-2.058 -3.019,-4.286 -0.405,-1.992 -1.393,-4.177 -2.175,-6.057 -2.166,-5.215 -6.373,-8.771 -10.308,-12.516 -2.874,-2.737 -5.729,-3.164 -9.228,-4.122 -1.498,-0.415 -2.206,-3.261 -2.646,-4.47 -0.946,-2.604 -2.768,-4.39 -4.399,-6.562 5.637,-2.058 -2.21,-11.325 -4.063,-13.575 -1.249,-1.505 -4.728,-4.247 -4.577,-6.234 0.26,-3.424 -4.156,-5.407 -5.63,-8.484 -4.5,-9.354 -11.611,-17.128 -16.589,-26.307 -1.523,-2.793 -3.216,-7.105 -6.567,-8.048 -1.519,-0.429 -7.51,-1.425 -7.622,1.39 -2.004,-1.833 1.242,-6.643 1.793,-8.566 1.182,-4.026 0.236,-8.222 0.893,-12.286 0.835,-5.153 0.047,-1.945 0.76,-5.024 3.846,1.144 14.438,3.984 18.268,3.149 7.617,-1.664 7.502,-12.75 14.662,-13.875 2.686,-0.424 9.276,0.256 8.986,-3.37 -0.664,-8.26 2.93,-5.772 7.94,-7.465 -6.525,-6.246 -12.736,-12.767 -18.701,-19.542 11.595,-2.421 19.282,-5.032 32.946,-12.333 5.775,1.113 16.111,1.739 22.446,4.676 21.33,9.872 38.895,24.966 57.387,39.049 3.926,2.986 7.723,5.944 11.396,9.234 4.162,3.741 7.063,3.556 12.553,4.088 6.333,0.611 12.989,1.507 19.324,2.088 2.327,0.226 3.485,-0.965 5.998,-0.422 3.402,0.734 6.951,1.148 10.425,1.463 3.673,0.333 3.968,4.61 5.142,7.317 1.739,4.021 7.599,1.481 10.927,1.771 3.437,0.305 3.886,2.171 5.014,4.985 1.224,3.047 7.277,6.931 6.34,10.348 -0.314,-0.537 -0.687,-1.021 -1.137,-1.443 -1.034,2.446 1.437,2.17 1.137,4.328 0.042,0.033 10.341,0.984 6.394,4.011 1.514,0.478 4.721,8.2 6.251,3.849 -1.026,3.874 8.275,8.227 10.423,10.577 -1.142,-0.338 -2.012,-1.041 -2.574,-2.081 0.062,4.277 2.635,4.331 3.559,7.762 0.539,2.014 0.323,6.242 -2.598,3.629 0.258,2.28 -0.482,2.73 1.585,3.149 0.323,0.059 3.049,5.948 3.229,6.633 -0.6,-0.522 -1.19,-1.055 -1.763,-1.601 1.776,2.606 4.957,4.068 6.375,6.966 1.423,2.913 1.856,5.599 3.561,8.433 1.314,2.185 3.228,5.925 5.946,6.596 1.254,0.302 5.77,-0.879 5.128,1.579 0.482,-1.251 1.57,-1.701 2.732,-0.963 -1.53,1.863 -2.911,6.939 2.241,5.622 -0.34,0.09 2.629,5.886 2.922,6.293 5.941,6.736 13.95,18.591 17.101,19.873 19.572,2.178 28.61,3.246 39.248,5.611 1.393,-0.324 2.608,-1.158 3.052,-2.059 2.377,5.489 7.77,8.367 8.677,11.93 0.817,3.221 0.591,5.358 -0.253,8.67 -2.824,11.088 -4.388,31.071 -8.473,33.276 -27.894,15.021 -62.797,20.28 -95.941,25.777 -4.292,1.52 -8.438,3.459 -12.361,5.732 -5.908,3.416 -11.637,13.676 -13.559,19.791 -0.886,2.834 -4.224,5.934 -7.336,5.949 -3.244,0.014 -3.842,-5.283 -6.506,-6.174 -3.017,-1.014 -5.246,0.521 -7.84,0.211 -4.029,-0.492 -9.415,0.141 -13.036,-1.729 -4.353,-2.234 -7.563,-1.209 -12.378,-1.195 -4.223,0.008 -8.672,2.588 -12.876,2.539 -5.213,-0.066 -5.972,-4.043 -8.687,-3.326 -3.656,0.957 -4.605,5.738 -4.813,8.762 -0.214,2.975 3.524,4.711 0.37,6.861 -0.604,0.406 -1.237,4.635 -5.772,6.139 -0.047,-0.388 0.216,-0.501 0.195,-0.884" />
	<path id="sa-3" d="M 952.83,483.607 c 1.186,0.297 1.453,0.678 0.817,1.123 -0.281,-0.369 -0.546,-0.74 -0.817,-1.123" />
	<path id="sa-4" d="M 953.647,484.736 c 0.49,0.693 0.591,1.445 0.31,2.25 -0.591,-0.162 -1.125,-0.43 -1.605,-0.805 0.426,-0.478 0.853,-0.965 1.295,-1.445" />
	<path id="sa-5" d="M 1068.062,284.633 c 0.807,-1.202 2.034,-0.879 2.92,0 -0.984,0.182 -1.949,0.182 -2.92,0" />
</g>

<g id="text_elements"
	style="fill:#000000;font-family:ArialMT;font-size:28px">

	<switch id="kuwait"
		text-anchor="start"
		transform="translate(962,100)">
		<text id="kuwait-ar" systemLanguage="ar,arz" style="text-anchor:end">الكويت</text>
		<text id="kuwait-as" systemLanguage="as">কুৱেইট</text>
		<text id="kuwait-bn" systemLanguage="bn">কুয়েত</text>
		<text id="kuwait-de" systemLanguage="de">Kuwait</text>
		<text id="kuwait-en" systemLanguage="en">Kuwait</text>
		<text id="kuwait-es" systemLanguage="es">Kuwait</text>
		<text id="kuwait-fa" systemLanguage="fa" style="text-anchor:end">کویت</text>
		<text id="kuwait-fr" systemLanguage="fr">Koweït</text>
		<text id="kuwait-he" systemLanguage="he" style="text-anchor:end">כווית</text>
		<text id="kuwait-hi" systemLanguage="hi">कुवैत</text>
		<text id="kuwait-it" systemLanguage="it">Kuwait</text>
		<text id="kuwait-ja" systemLanguage="ja">クウェート</text>
		<text id="kuwait-ko" systemLanguage="ko">쿠웨이트</text>
		<text id="kuwait-nl" systemLanguage="nl">Koeweit</text>
		<text id="kuwait-pt" systemLanguage="pt">Kuwait</text>
		<text id="kuwait-ru" systemLanguage="ru">Кувейт</text>
		<text id="kuwait-tr" systemLanguage="tr">Kuveyt</text>
		<text id="kuwait-zh" systemLanguage="zh,zh-cn">科威特</text>
		<text id="kuwait-none" systemLanguage="zz"/>
		<text id="kuwait-other">Kuwait</text>
	</switch>

	<switch id="bahrain"
		text-anchor="middle"
		transform="translate(1060,145)">
		<text id="bahrain-ar" systemLanguage="ar,arz">البحرين</text>
		<text id="bahrain-as" systemLanguage="as">বাহৰেইন</text>
		<text id="bahrain-bn" systemLanguage="bn">বাহরাইন</text>
		<text id="bahrain-de" systemLanguage="de">Bahrain</text>
		<text id="bahrain-en" systemLanguage="en">Bahrain</text>
		<text id="bahrain-es" systemLanguage="es">Baréin</text>
		<text id="bahrain-fa" systemLanguage="fa">بحرین</text>
		<text id="bahrain-fr" systemLanguage="fr">Bahreïn</text>
		<text id="bahrain-he" systemLanguage="he">בחריין</text>
		<text id="bahrain-hi" systemLanguage="hi">बहरीन</text>
		<text id="bahrain-it" systemLanguage="it">Bahrein</text>
		<text id="bahrain-ja" systemLanguage="ja" x="10" y="0">バーレーン</text>
		<text id="bahrain-ko" systemLanguage="ko">바레인</text>
		<text id="bahrain-nl" systemLanguage="nl">Bahrein</text>
		<text id="bahrain-pt" systemLanguage="pt">Bahrein</text>
		<text id="bahrain-ru" systemLanguage="ru">Бахрейн</text>
		<text id="bahrain-tr" systemLanguage="tr">Bahreyn</text>
		<text id="bahrain-zh" systemLanguage="zh,zh-cn">巴林</text>
		<text id="bahrain-none" systemLanguage="zz"/>
		<text id="bahrain-other">Bahrain</text>
	</switch>

	<switch id="qatar"
		text-anchor="start"
		transform="translate(1120,185)">
		<text id="qatar-ar" systemLanguage="ar,arz" style="text-anchor:end">قطر</text>
		<text id="qatar-as" systemLanguage="as">কাটাৰ</text>
		<text id="qatar-bn" systemLanguage="bn">কাতার</text>
		<text id="qatar-de" systemLanguage="de">Katar</text>
		<text id="qatar-en" systemLanguage="en">Qatar</text>
		<text id="qatar-es" systemLanguage="es">Catar</text>
		<text id="qatar-fa" systemLanguage="fa" style="text-anchor:end">قطر</text>
		<text id="qatar-fr" systemLanguage="fr">Qatar</text>
		<text id="qatar-he" systemLanguage="he" style="text-anchor:end">קטר</text>
		<text id="qatar-hi" systemLanguage="hi">क़तर</text>
		<text id="qatar-it" systemLanguage="it">Qatar</text>
		<text id="qatar-ja" systemLanguage="ja">カタール</text>
		<text id="qatar-ko" systemLanguage="ko">카타르</text>
		<text id="qatar-nl" systemLanguage="nl">Qatar</text>
		<text id="qatar-pt" systemLanguage="pt">Catar</text>
		<text id="qatar-ru" systemLanguage="ru">Катар</text>
		<text id="qatar-tr" systemLanguage="tr">Katar</text>
		<text id="qatar-zh" systemLanguage="zh,zh-cn">卡塔尔</text>
		<text id="qatar-none" systemLanguage="zz"/>
		<text id="qatar-other">Qatar</text>
	</switch>

	<switch id="uae"
		text-anchor="start"
		transform="translate(1170,225)">
		<text id="uae-ar" systemLanguage="ar,arz" style="text-anchor:end"><tspan
			x="0" y="0" id="uae-ar-1"> المتحدة</tspan><tspan
			x="0" dy="30" id="uae-ar-2"> العربية</tspan><tspan
			x="0" dy="30" id="uae-ar-3">الإمارات</tspan></text>
		<text id="uae-as" systemLanguage="as"><tspan
			x="0" y="0" id="uae-as-1">সংযুক্ত</tspan><tspan
			x="0" dy="30" id="uae-as-2">আৰৱ </tspan><tspan
			x="0" dy="30" id="uae-as-3">আমিৰাত</tspan></text>
		<text id="uae-bn" systemLanguage="bn"><tspan
			x="0" y="0" id="uae-bn-1">সংযুক্ত</tspan><tspan
			x="0" dy="30" id="uae-bn-2">আরব</tspan><tspan
			x="0" dy="30" id="uae-bn-3">আমিরাত</tspan></text>
		<text id="uae-de" systemLanguage="de"><tspan
			x="0" y="0" id="uae-de-1">Vereinigte </tspan><tspan
			x="0" dy="30" id="uae-de-2">Arabische </tspan><tspan
			x="0" dy="30" id="uae-de-3">Emirate</tspan></text>
		<text id="uae-en" systemLanguage="en"><tspan
			x="0" y="0" id="uae-en-1">United </tspan><tspan
			x="0" dy="30" id="uae-en-2">Arab </tspan><tspan
			x="0" dy="30" id="uae-en-3">Emirates</tspan></text>
		<text id="uae-es" systemLanguage="es"><tspan
			x="0" y="0" id="uae-es-1">Emiratos </tspan><tspan
			x="0" dy="30" id="uae-es-2">Árabes </tspan><tspan
			x="0" dy="30" id="uae-es-3">Unidos</tspan></text>
		<text id="uae-eu" systemLanguage="eu"><tspan
			x="0" y="0" id="uae-eu-1">Arabiar </tspan><tspan
			x="0" dy="30" id="uae-eu-2">Emirerri </tspan><tspan
			x="0" dy="30" id="uae-eu-3">Batuak</tspan></text>
		<text id="uae-fa" systemLanguage="fa" style="text-anchor:end"><tspan
			x="0" y="0" id="uae-fa-1"> امارات</tspan><tspan
			x="0" dy="30" id="uae-fa-2"> متحده</tspan><tspan
			x="0" dy="30" id="uae-fa-3">عربی</tspan></text>
		<text id="uae-fr" systemLanguage="fr"><tspan
			x="0" y="0" id="uae-fr-1">Émirats </tspan><tspan
			x="0" dy="30" id="uae-fr-2">arabes </tspan><tspan
			x="0" dy="30" id="uae-fr-3">unis</tspan></text>
		<text id="uae-he" systemLanguage="he" style="text-anchor:end"><tspan
			x="0" y="0" id="uae-he-1"> איחוד</tspan><tspan
			x="0" dy="30" id="uae-he-2"> האמירויות</tspan><tspan
			x="0" dy="30" id="uae-he-3">הערביות</tspan></text>
		<text id="uae-hi" systemLanguage="hi"><tspan
			x="0" y="0" id="uae-hi-1">संयुक्त </tspan><tspan
			x="0" dy="30" id="uae-hi-2">अरब </tspan><tspan
			x="0" dy="30" id="uae-hi-3">अमीरात</tspan></text>
		<text id="uae-it" systemLanguage="it"><tspan
			x="0" y="0" id="uae-it-1">Emirati </tspan><tspan
			x="0" dy="30" id="uae-it-2">Arabi </tspan><tspan
			x="0" dy="30" id="uae-it-3">Uniti</tspan></text>
		<text id="uae-ja" systemLanguage="ja"><tspan
			x="0" y="0" id="uae-ja-1">アラブ</tspan><tspan
			x="0" dy="30" id="uae-ja-2">首長国連邦</tspan></text>
		<text id="uae-ko" systemLanguage="ko"
			x="5" y="20">아랍에미리트</text>
		<text id="uae-nl" systemLanguage="nl"><tspan
			x="0" y="0" id="uae-nl-1">Verenigde </tspan><tspan
			x="0" dy="30" id="uae-nl-2">Arabische </tspan><tspan
			x="0" dy="30" id="uae-nl-3">Emiraten</tspan></text>
		<text id="uae-pt" systemLanguage="pt"><tspan
			x="0" y="0" id="uae-pt-1">Emirados </tspan><tspan
			x="0" dy="30" id="uae-pt-2">Árabes </tspan><tspan
			x="0" dy="30" id="uae-pt-3">Unidos</tspan></text>
		<text id="uae-ru" systemLanguage="ru"
			style="font-family:DejaVuSans-Oblique"><tspan
			x="0" y="0" id="uae-ru-1">Объединённые </tspan><tspan
			x="0" dy="30" id="uae-ru-2">Арабские </tspan><tspan
			x="0" dy="30" id="uae-ru-3">Эмираты</tspan></text>
		<text id="uae-tr" systemLanguage="tr"><tspan
			x="0" y="0" id="uae-tr-1">Birleşik </tspan><tspan
			x="0" dy="30" id="uae-tr-2">Arap </tspan><tspan
			x="0" dy="30" id="uae-tr-3">Emirlikleri</tspan></text>
		<text id="uae-zh" systemLanguage="zh,zh-cn"><tspan
			x="0" y="0" id="uae-zh-1">阿联酋</tspan></text>
		<text id="uae-none" systemLanguage="zz"/>
		<text id="uae-other"><tspan
			x="0" y="0" id="uae-other-1">United </tspan><tspan
			x="0" dy="30" id="uae-other-2">Arab </tspan><tspan
			x="0" dy="30" id="uae-other-3">Emirates</tspan></text>
	</switch>

	<switch id="saudi_arabia"
		text-anchor="middle"
		transform="translate(1000,340)">
		<text id="saudi_arabia-ar" systemLanguage="ar,arz">السعودية</text>
		<text id="saudi_arabia-as" systemLanguage="as">চৌদি আৰৱ</text>
		<text id="saudi_arabia-bn" systemLanguage="bn">সৌদি আরব</text>
		<text id="saudi_arabia-de" systemLanguage="de">Saudi-Arabien</text>
		<text id="saudi_arabia-en" systemLanguage="en">Saudi Arabia</text>
		<text id="saudi_arabia-es" systemLanguage="es">Arabia Saudita</text>
		<text id="saudi_arabia-fa" systemLanguage="fa">عربستان سعودی</text>
		<text id="saudi_arabia-fr" systemLanguage="fr">Arabie saoudite</text>
		<text id="saudi_arabia-he" systemLanguage="he">ערב הסעודית</text>
		<text id="saudi_arabia-hi" systemLanguage="hi">सउदी अरब</text>
		<text id="saudi_arabia-it" systemLanguage="it">Arabia Saudita</text>
		<text id="saudi_arabia-ja" systemLanguage="ja">サウジアラビア</text>
		<text id="saudi_arabia-ko" systemLanguage="ko">카타르</text>
		<text id="saudi_arabia-nl" systemLanguage="nl">Saoedi-Arabië</text>
		<text id="saudi_arabia-pt" systemLanguage="pt">Arábia Saudita</text>
		<text id="saudi_arabia-ru" systemLanguage="ru">Саудовская Аравия</text>
		<text id="saudi_arabia-tr" systemLanguage="tr">Suudi Arabistan</text>
		<text id="saudi_arabia-zh" systemLanguage="zh,zh-cn">沙特阿拉伯</text>
		<text id="saudi_arabia-none" systemLanguage="zz"/>
		<text id="saudi_arabia-other">Saudi Arabia</text>
	</switch>

	<switch id="oman"
		text-anchor="start"
		transform="translate(1145,340)">
		<text id="oman-ar" systemLanguage="ar,arz" style="text-anchor:end">عمان</text>
		<text id="oman-as" systemLanguage="as">ওমান</text>
		<text id="oman-bn" systemLanguage="bn">ওমান</text>
		<text id="oman-de" systemLanguage="de">Oman</text>
		<text id="oman-en" systemLanguage="en">Oman</text>
		<text id="oman-es" systemLanguage="es">Omán</text>
		<text id="oman-fa" systemLanguage="fa" style="text-anchor:end">عمان</text>
		<text id="oman-fr" systemLanguage="fr">Oman</text>
		<text id="oman-he" systemLanguage="he" style="text-anchor:end">עומאן</text>
		<text id="oman-hi" systemLanguage="hi">ओमान</text>
		<text id="oman-it" systemLanguage="it">Oman</text>
		<text id="oman-ja" systemLanguage="ja">オマーン</text>
		<text id="oman-ko" systemLanguage="ko">오만</text>
		<text id="oman-nl" systemLanguage="nl">Oman</text>
		<text id="oman-pt" systemLanguage="pt">Omã</text>
		<text id="oman-ru" systemLanguage="ru">Оман</text>
		<text id="oman-tr" systemLanguage="tr">Umman</text>
		<text id="oman-zh" systemLanguage="zh,zh-cn">阿曼</text>
		<text id="oman-none" systemLanguage="zz"/>
		<text id="oman-other">Oman</text>
	</switch>
</g>

<switch id="text_lines">
	<g id="text_lines-none" systemLanguage="zz">
	</g>
	<g id="text_lines-other" style="fill:none;stroke:#000000;stroke-width:3px">
		<line id="text_lines-1" x1="982" y1="107" x2="995" y2="171"/>
		<line id="text_lines-2" x1="1050" y1="233" x2="1060" y2="155"/>
		<line id="text_lines-3" x1="1060" y1="250" x2="1120" y2="195"/>
		<line id="text_lines-4" x1="1130" y1="270" x2="1170" y2="230"/>
	</g>
</switch>
</svg>